#N canvas -7 98 517 310 12;
#X obj 165 51 pofhead;
#X msg 231 108 reload;
#X obj 165 75 pofvisible;
#X obj 139 50 tgl 15 0 empty empty empty 17 7 0 10 -262144 -1 -1 1
1;
#X obj 165 142 poflua lights -r testlight2.lua;
#X msg 259 229 lua shine= \$1;
#X floatatom 276 195 5 0 0 0 - - -;
#X connect 0 0 2 0;
#X connect 1 0 4 0;
#X connect 2 0 4 0;
#X connect 3 0 2 0;
#X connect 5 0 4 0;
#X connect 6 0 5 0;
