#N canvas 513 497 376 276 10;
#X declare -lib pof;
#X declare -path .;
#X declare -path ../buildExternal/bin;
#X obj 187 15 pof_declare;
#X obj -24 3 cnv 15 200 20 empty empty empty 20 12 0 14 -204786 -66577
0;
#X text -22 2 Pof : Pd OpenFrameworks externals;
#X obj -24 25 cnv 15 200 20 empty empty empty 20 12 0 14 -262130 -66577
0;
#X text 5 24 (c) Antoine Rousseau 2014;
#X obj -24 56 cnv 15 200 20 empty empty empty 20 12 0 14 -261682 -66577
0;
#X obj -5 168 cnv 15 140 30 empty empty empty 20 12 0 14 -261682 -66577
0;
#X text -19 56 poffile : file utilities.;
#X text 137 151 Arguments : none;
#X obj 2 228 print;
#X obj 2 176 pofaccel;
#X msg 2 108 getforce;
#X msg 19 136 getorient;
#X connect 10 0 9 0;
#X connect 11 0 10 0;
#X connect 12 0 10 0;
