#N canvas 75 443 974 502 10;
#X declare -lib pof;
#X obj 5 4 cnv 15 200 20 empty empty empty 20 12 0 14 -204786 -66577
0;
#X obj 5 26 cnv 15 200 20 empty empty empty 20 12 0 14 -262130 -66577
0;
#X obj 5 57 cnv 15 240 20 empty empty empty 20 12 0 14 -261682 -66577
0;
#X obj 26 383 cnv 15 180 30 empty empty empty 20 12 0 14 -261682 -66577
0;
#X obj 38 91 pofhead;
#X obj 38 450 pofimage logo/pOf.png 200 0;
#X text 7 3 Pof: Pd OpenFrameworks externals;
#X obj 216 16 declare -lib pof;
#X text 11 57 pofblend : control the GL blending.;
#X text 267 58 Arguments : srcFactor destFactor;
#X text 349 71 Inlet 1: set srcFactor destFactor;
#X text 34 25 (c) Antoine Rousseau 2018;
#X obj 38 392 pofblend;
#X msg 147 184 ONE;
#X msg 115 184 ZERO;
#X msg 173 184 SRC_COLOR;
#X msg 357 184 SRC_ALPHA;
#X msg 235 184 ONE_MINUS_SRC_COLOR;
#X msg 419 184 ONE_MINUS_SRC_ALPHA;
#X msg 542 184 DEST_COLOR;
#X msg 740 184 DEST_ALPHA;
#X msg 611 184 ONE_MINUS_DEST_COLOR;
#X msg 809 184 ONE_MINUS_DEST_ALPHA;
#X msg 192 275 set SRC_ALPHA SRC_ALPHA;
#X msg 192 255 set SRC_ALPHA ONE_MINUS_SRC_ALPHA;
#X text 400 256 "normal" alpha;
#X msg 192 298 set ONE SRC_ALPHA;
#X msg 191 319 set DEST_COLOR ONE_MINUS_SRC_ALPHA;
#X obj 191 344 t a;
#X msg 147 224 ONE;
#X msg 115 224 ZERO;
#X msg 173 224 SRC_COLOR;
#X msg 356 224 SRC_ALPHA;
#X msg 235 224 ONE_MINUS_SRC_COLOR;
#X msg 419 224 ONE_MINUS_SRC_ALPHA;
#X msg 542 224 DEST_COLOR;
#X msg 740 224 DEST_ALPHA;
#X msg 611 224 ONE_MINUS_DEST_COLOR;
#X msg 809 224 ONE_MINUS_DEST_ALPHA;
#X obj 115 240 symbol;
#X obj 115 200 symbol;
#X obj 115 259 t b s;
#X obj 97 283 pack s s;
#X msg 97 304 set \$1 \$2;
#X text 65 184 source:;
#X text 78 225 dest:;
#X obj 38 112 pofdepthtest;
#X floatatom 165 404 5 0 0 0 - - -, f 5;
#X obj 38 424 poftranslate 0 0 1;
#X obj 38 133 t a a;
#X obj 65 155 pofimage img/bikers.jpg 600;
#N canvas 111 82 479 467 example-drill_image 1;
#X obj 41 32 pofhead;
#X obj 41 53 pofvisible;
#X obj 100 33 tgl 15 0 empty empty empty 17 7 0 10 -262144 -1 -1 1
1;
#X obj 41 250 t a a;
#X obj 41 122 t a a a, f 34;
#X obj 242 145 pofcolor 0 0 0 1;
#X obj 242 166 pofrect 6000 6000;
#X obj 141 192 pofimage img/moon.jpg 800;
#X obj 41 229 poffbo 500 500;
#X obj 68 274 pofimage img/bikers.jpg 400;
#X obj 41 353 pofblend ZERO ONE_MINUS_SRC_ALPHA;
#X msg 66 307 set SRC_ALPHA ONE_MINUS_SRC_ALPHA;
#X text 274 308 "normal" alpha;
#X msg 66 327 set ZERO ONE_MINUS_SRC_ALPHA;
#X obj 41 374 pofimage logo/pOf.png 300;
#X text 353 166 1:clear screen;
#X text 133 232 3: make fbo;
#X text 243 276 fbo background = bikers;
#X text 299 193 2:background;
#X text 242 327 "drilling" with src (1-alpha);
#X text 147 406 fbo.alpha *= (1-pOf.alpha);
#X connect 0 0 1 0;
#X connect 1 0 4 0;
#X connect 2 0 1 0;
#X connect 3 0 10 0;
#X connect 3 1 9 0;
#X connect 4 0 8 0;
#X connect 4 1 7 0;
#X connect 4 2 5 0;
#X connect 5 0 6 0;
#X connect 8 0 3 0;
#X connect 10 0 14 0;
#X connect 11 0 10 0;
#X connect 13 0 10 0;
#X restore 513 359 pd example-drill_image;
#X connect 4 0 46 0;
#X connect 12 0 48 0;
#X connect 13 0 40 0;
#X connect 14 0 40 0;
#X connect 15 0 40 0;
#X connect 16 0 40 0;
#X connect 17 0 40 0;
#X connect 18 0 40 0;
#X connect 19 0 40 0;
#X connect 20 0 40 0;
#X connect 21 0 40 0;
#X connect 22 0 40 0;
#X connect 23 0 28 0;
#X connect 24 0 28 0;
#X connect 26 0 28 0;
#X connect 27 0 28 0;
#X connect 28 0 12 0;
#X connect 29 0 39 0;
#X connect 30 0 39 0;
#X connect 31 0 39 0;
#X connect 32 0 39 0;
#X connect 33 0 39 0;
#X connect 34 0 39 0;
#X connect 35 0 39 0;
#X connect 36 0 39 0;
#X connect 37 0 39 0;
#X connect 38 0 39 0;
#X connect 39 0 41 0;
#X connect 40 0 42 0;
#X connect 41 0 42 0;
#X connect 41 1 42 1;
#X connect 42 0 43 0;
#X connect 43 0 12 0;
#X connect 46 0 49 0;
#X connect 47 0 48 3;
#X connect 48 0 5 0;
#X connect 49 0 12 0;
#X connect 49 1 50 0;
