#N canvas 625 453 378 354 10;
#X declare -lib pof;
#X obj 4 3 cnv 15 200 20 empty empty empty 20 12 0 14 -204786 -66577
0;
#X obj 4 25 cnv 15 200 20 empty empty empty 20 12 0 14 -262130 -66577
0;
#X text 33 24 (c) Antoine Rousseau 2014;
#X obj 4 56 cnv 15 250 20 empty empty empty 20 12 0 14 -261682 -66577
0;
#X obj 34 240 cnv 15 120 30 empty empty empty 20 12 0 14 -261682 -66577
0;
#X obj 39 120 pofhead;
#X floatatom 109 206 5 0 0 0 - - -, f 5;
#X floatatom 153 205 5 0 0 0 - - -, f 5;
#X text 13 56 pofcirc : draw a circle (or an ellipse).;
#X obj 39 248 pofcirc 200 200 50;
#X text 76 86 Arguments : initial width height [resolution];
#X msg 101 146 res \$1;
#X floatatom 101 121 5 3 100 0 - - -, f 5;
#X obj 39 158 t a a;
#X obj 66 290 pofcolor 1 0 0 1;
#X obj 66 312 pofrect 200 200;
#X text 168 130 Inlet 2: width;
#X text 168 115 Inlet 1: res (resolution);
#X text 168 145 Inlet 3: height \; if heigth=0 \, then height=width.
;
#X obj 218 5 declare -lib pof;
#X text 6 2 Pof: Pd OpenFrameworks externals;
#X connect 5 0 13 0;
#X connect 6 0 9 1;
#X connect 6 0 15 1;
#X connect 7 0 9 2;
#X connect 7 0 15 2;
#X connect 11 0 9 0;
#X connect 12 0 11 0;
#X connect 13 0 9 0;
#X connect 13 1 14 0;
#X connect 14 0 15 0;
