#N canvas 598 81 418 355 10;
#X declare -lib pof;
#X obj 4 3 cnv 15 200 20 empty empty empty 20 12 0 14 -204786 -66577
0;
#X obj 4 25 cnv 15 200 20 empty empty empty 20 12 0 14 -262130 -66577
0;
#X obj 5 56 cnv 15 350 20 empty empty empty 20 12 0 14 -261682 -66577
0;
#X obj 25 204 cnv 15 200 30 empty empty empty 20 12 0 14 -261682 -66577
0;
#X obj 44 276 pofhead;
#X obj 100 257 loadbang;
#X text 10 55 poffonts : load and declare a font \, using ofxFontStash.
;
#X text 55 94 Inlet 1 : set FILENAME;
#X msg 32 121 set font/vera.ttf;
#X msg 45 143 set font/FreeMonoBold.ttf;
#X obj 225 149 openpanel;
#X msg 225 171 set \$1;
#X obj 225 129 bng 15 250 50 0 empty empty empty 17 7 0 10 -262144
-1 -1;
#X symbolatom 270 171 0 0 0 0 - - -;
#X obj 32 210 poffonts font1 font/vera.ttf;
#X msg 100 279 text Hello Pof !!!;
#X obj 44 308 poftexts font1 60;
#X obj 216 5 declare -lib pof;
#X text 6 2 Pof: Pd OpenFrameworks externals;
#X text 55 78 Arguments : name filename [scale];
#X floatatom 73 164 5 0 1e+06 0 - - -;
#X msg 73 182 scale \$1;
#X text 13 26 (c) Antoine Rousseau 2014-2021;
#X connect 4 0 16 0;
#X connect 5 0 15 0;
#X connect 8 0 14 0;
#X connect 9 0 14 0;
#X connect 10 0 11 0;
#X connect 10 0 13 0;
#X connect 11 0 14 0;
#X connect 12 0 10 0;
#X connect 15 0 16 0;
#X connect 20 0 21 0;
#X connect 21 0 14 0;
