#N canvas 588 133 631 614 10;
#X declare -lib pof;
#X obj 5 4 cnv 15 200 20 empty empty empty 20 12 0 14 -204786 -66577
0;
#X obj 5 26 cnv 15 200 20 empty empty empty 20 12 0 14 -262130 -66577
0;
#X text 34 25 (c) Antoine Rousseau 2014;
#X obj 5 57 cnv 15 240 20 empty empty empty 20 12 0 14 -261682 -66577
0;
#X obj 27 465 cnv 15 180 30 empty empty empty 20 12 0 14 -261682 -66577
0;
#X obj 37 91 pofhead;
#X text 294 125 Inlet 2: width;
#X text 294 138 Inlet 3: height;
#X text 7 3 Pof: Pd OpenFrameworks externals;
#X obj 326 5 declare -lib pof;
#X msg 72 248 load \$1;
#X text 294 111 Inlet 1: load MOVIE.FILE;
#X msg 97 321 play \$1;
#X obj 97 296 tgl 15 0 empty empty empty 17 7 0 10 -262144 -1 -1 0
1;
#X floatatom 124 114 5 0 0 0 - - -, f 5;
#X obj 37 115 pofrotate x;
#X obj 240 194 pofimage;
#X text 14 59 poffilm : video player.;
#X text 212 98 Arguments : [width [height]];
#X text 198 163 As a texture : [poffilm tex] image won't be drawn \,
but instead will be selected for texturing following 3d shapes \; see
;
#X obj 318 194 pofplane;
#X obj 37 470 poffilm 500 500;
#X msg 205 347 speed \$1;
#X msg 288 264 1;
#X msg 435 322 goto \$1;
#X floatatom 435 301 5 0 0 0 - - -, f 5;
#X obj 257 322 hsl 128 15 0 1 0 0 empty empty empty -2 -8 0 10 -262144
-1 -1 0 1;
#X msg 345 264 2;
#X msg 375 264 3;
#X floatatom 103 431 5 0 0 0 - - -, f 5;
#X floatatom 151 434 5 0 0 0 - - -, f 5;
#X msg 72 227 symbol img/fingers.mov;
#X msg 227 266 0.5;
#X msg 193 266 0.25;
#X msg 257 264 0;
#X msg 152 266 0.125;
#X msg 317 264 1.5;
#X floatatom 205 325 5 0 0 0 - - -, f 5;
#X obj 139 540 unpack f f f;
#X floatatom 139 562 5 0 0 3 width - -, f 5;
#X floatatom 179 562 5 0 0 3 height - -, f 5;
#X floatatom 233 562 5 0 0 3 nb_frames - -, f 5;
#X obj 139 499 route size frame;
#X floatatom 260 531 5 0 0 3 current_frame - -, f 5;
#X connect 5 0 15 0;
#X connect 10 0 21 0;
#X connect 12 0 21 0;
#X connect 13 0 12 0;
#X connect 14 0 15 1;
#X connect 15 0 21 0;
#X connect 21 1 42 0;
#X connect 22 0 21 0;
#X connect 23 0 37 0;
#X connect 24 0 21 0;
#X connect 25 0 24 0;
#X connect 26 0 37 0;
#X connect 27 0 37 0;
#X connect 28 0 37 0;
#X connect 29 0 21 1;
#X connect 30 0 21 2;
#X connect 31 0 10 0;
#X connect 32 0 37 0;
#X connect 33 0 37 0;
#X connect 34 0 37 0;
#X connect 35 0 37 0;
#X connect 36 0 37 0;
#X connect 37 0 22 0;
#X connect 38 0 39 0;
#X connect 38 1 40 0;
#X connect 38 2 41 0;
#X connect 42 0 38 0;
#X connect 42 1 43 0;
