#N canvas 625 164 538 602 10;
#X declare -lib pof;
#X obj 3 3 cnv 15 200 20 empty empty empty 20 12 0 14 -204786 -66577
0;
#X obj 3 25 cnv 15 200 20 empty empty empty 20 12 0 14 -262130 -66577
0;
#X text 32 24 (c) Antoine Rousseau 2014;
#X obj 3 56 cnv 15 350 20 empty empty empty 20 12 0 14 -261682 -66577
0;
#X obj 20 226 cnv 15 140 30 empty empty empty 20 12 0 14 -261682 -66577
0;
#X obj 27 84 pofhead;
#X floatatom 67 208 5 0 0 0 - - -, f 5;
#X floatatom 108 208 5 0 0 0 - - -, f 5;
#X floatatom 96 290 5 0 0 0 - - -, f 5;
#X obj 27 421 pofimage img/of.png 200 200;
#X obj 27 107 t a a;
#X obj 54 130 pofcolor 0 0 0 1;
#X obj 27 372 t a a;
#X obj 200 397 pofcolor 1 0.8 0.8 1;
#X text 8 57 poffbo : draw following tree into a framebuffer.;
#X obj 27 398 pofrect 240 200;
#X text 197 246 Inlet 2: width;
#X text 197 259 Inlet 3: height;
#X floatatom 78 332 5 0 0 0 - - -, f 5;
#X obj 27 352 pofrotate;
#X obj 27 234 poffbo 300 200;
#X obj 54 153 pofrect 320 220;
#X obj 200 420 pofrect 500 500;
#X msg 41 513 draw 1;
#X obj 27 445 poftranslate 32 -1;
#X obj 27 535 poftouch 41 100;
#X obj 41 492 loadbang;
#X obj 27 471 pofcolor 0 0.5 0 1;
#X obj 152 484 route up down;
#X floatatom 152 527 5 0 0 0 - - -, f 5;
#X msg 152 505 1;
#X msg 189 504 0;
#X text 239 439 poffbo also clips touch events \;;
#X text 237 456 try clicking the darker part of the "F";
#X text 237 470 after having hidden a part of it (translate).;
#X text 132 289 <-- translate the sub-scene;
#X text 114 331 <-- rotate the sub-scene;
#X floatatom 149 312 5 0 0 0 - - -, f 5;
#X obj 180 151 tgl 15 0 empty empty empty 17 7 0 10 -262144 -1 -1 0
1;
#X msg 180 191 clear \$1;
#X text 200 147 draw-sub-tree on/off (0/1);
#X text 233 188 autoclear on/off (0/1);
#X obj 180 172 tgl 15 0 empty empty empty 17 7 0 10 -262144 -1 -1 0
1;
#X obj 27 312 poftranslate 0 0.5;
#X text 160 94 Arguments : [poffbo] width height;
#X text 203 106 or : [poffbo] width height fboName;
#X text 203 118 or : [poffbo] fboName width height;
#X text 203 129 or : [poffbo] fboName;
#X text 196 208 Inlet 1: 0/1 : draw-sub-tree on/off;
#X text 249 219 clear 0/1 : autoclear on/off;
#X text 249 230 set otherName : change to another fbo reference;
#X text 118 76 Use for : clipping a sub-scene \, pre-drawing \, feedback
\, ...;
#N canvas 626 199 513 508 EXAMPLE_motion-blur 0;
#X obj 47 39 pofhead;
#X obj 47 69 pofvisible;
#X obj 118 42 tgl 15 0 empty empty empty 17 7 0 10 -262144 -1 -1 0
1;
#X obj 47 95 t a a;
#X obj 74 137 pofrect 3000 3000;
#X obj 74 117 pofcolor 0 0 0 1;
#X obj 47 261 t a a;
#X obj 74 305 pofrect 3000 3000;
#X msg 62 206 clear 0;
#X obj 47 333 pofrotate;
#X obj 62 184 loadbang;
#X obj 188 264 hsl 128 15 0.003 1 1 0 empty empty empty -2 -8 0 10
-262144 -1 -1 0 1;
#X floatatom 149 265 5 0 0 0 - - -, f 5;
#X obj 167 415 poftranslate 100;
#X obj 167 439 pofrotate;
#X obj 47 441 pofrotate;
#X obj 47 417 poftranslate -100;
#X obj 124 206 tgl 15 0 empty empty empty 17 7 0 10 -262144 -1 -1 0
1;
#X obj 74 285 pofcolor 0 0 0 0.02;
#X obj 47 231 poffbo 500 500;
#X obj 47 354 pofrect 200 1;
#X obj 47 462 pofrect 200 1;
#X obj 167 460 pofrect 200 1;
#X obj 218 374 * 1;
#X obj 144 373 * -3;
#X obj 135 331 * 2;
#X obj 218 216 f;
#X obj 167 193 pofbang 1;
#X obj 218 334 f;
#X obj 247 216 + 0.93;
#X text 108 99 clear screen;
#X obj 74 158 poftouch 3000 3000;
#X text 155 32 If you disable auto-clear on a fbo \, it will indefinitely
accumulate its content.;
#X text 226 246 darken previous frame;
#X connect 0 0 1 0;
#X connect 1 0 3 0;
#X connect 1 0 27 0;
#X connect 2 0 1 0;
#X connect 3 0 19 0;
#X connect 3 1 5 0;
#X connect 4 0 31 0;
#X connect 5 0 4 0;
#X connect 6 0 9 0;
#X connect 6 1 18 0;
#X connect 8 0 19 0;
#X connect 9 0 20 0;
#X connect 10 0 8 0;
#X connect 11 0 12 0;
#X connect 11 0 18 4;
#X connect 13 0 14 0;
#X connect 14 0 22 0;
#X connect 15 0 21 0;
#X connect 16 0 15 0;
#X connect 17 0 19 0;
#X connect 18 0 7 0;
#X connect 19 0 6 0;
#X connect 20 0 13 0;
#X connect 20 0 16 0;
#X connect 23 0 14 1;
#X connect 24 0 15 1;
#X connect 25 0 9 1;
#X connect 26 0 28 0;
#X connect 26 0 29 0;
#X connect 27 1 26 0;
#X connect 28 0 23 0;
#X connect 28 0 24 0;
#X connect 28 0 25 0;
#X connect 29 0 26 1;
#X restore 282 517 pd EXAMPLE_motion-blur;
#N canvas 705 130 590 591 EXAMPLE_named-fbo 0;
#X obj 90 2 pofhead;
#X obj 90 33 pofvisible;
#X obj 146 12 tgl 15 0 empty empty empty 17 7 0 10 -262144 -1 -1 0
1;
#X obj 469 97 pofrect 3000 3000;
#X obj 211 201 t a a;
#X obj 238 245 pofrect 3000 3000;
#X msg 96 225 clear 0;
#X obj 211 273 pofrotate;
#X obj 96 203 loadbang;
#X obj 371 187 hsl 128 15 0.003 1 1 0 empty empty empty -2 -8 0 10
-262144 -1 -1 0 1;
#X floatatom 313 205 5 0 0 0 - - -, f 5;
#X obj 331 355 poftranslate 100;
#X obj 331 379 pofrotate;
#X obj 211 381 pofrotate;
#X obj 211 357 poftranslate -100;
#X obj 238 225 pofcolor 0 0 0 0.02;
#X obj 211 294 pofrect 200 1;
#X obj 211 402 pofrect 200 1;
#X obj 331 402 pofrect 200 1;
#X obj 299 271 * 2;
#X obj 81 250 poffbo MyFBO;
#X obj 211 171 poffbo MyFBO 500 500;
#X obj 90 60 t a a a;
#X floatatom 262 113 5 0 0 0 - - -, f 5;
#X floatatom 165 151 5 0 0 0 - - -, f 5;
#X obj 469 77 pofcolor 0 0 0 1;
#X obj 211 145 pofscale 0.5 0.5;
#X obj 81 147 pofrotate 45;
#X obj 81 180 pofcolor 1 0 0 1;
#X msg 40 356 clear 0;
#X obj 40 334 loadbang;
#X obj 25 381 poffbo MyFBO;
#X floatatom 122 284 5 0 0 0 - - -, f 5;
#X obj 25 278 pofrotate -45;
#X obj 25 310 pofcolor 0 1 0 1;
#X obj 450 145 f;
#X obj 479 145 + 0.93;
#X obj 399 122 pofbang 1;
#X msg 333 147 clear \$1;
#X obj 333 129 tgl 15 0 empty empty empty 17 7 0 10 -262144 -1 -1 0
1;
#X msg 362 226 0;
#X obj 382 274 f;
#X text 198 5 Give a name to a fbo in order to have multiple read or
write access to it.;
#X text 467 58 clear screen;
#X obj 469 118 poftouch 3000 3000;
#X obj 331 430 pofimage logo/pOf.png 200 100;
#X obj 211 459 pofimage logo/pOf.png 200 100;
#X obj 382 314 * 1.5;
#X obj 308 313 * -2;
#X obj 502 248 mod 100;
#X obj 502 293 * 3.1416;
#X obj 502 315 cos;
#X obj 502 271 / 50;
#X obj 502 338 * 50;
#X obj 502 360 + 100;
#X obj 438 294 * 3.1416;
#X obj 438 316 cos;
#X obj 438 339 * 50;
#X obj 438 249 mod 150;
#X obj 438 272 / 75;
#X obj 438 361 + 200;
#X connect 0 0 1 0;
#X connect 1 0 22 0;
#X connect 2 0 1 0;
#X connect 3 0 44 0;
#X connect 4 0 7 0;
#X connect 4 1 15 0;
#X connect 6 0 20 0;
#X connect 7 0 16 0;
#X connect 8 0 6 0;
#X connect 9 0 10 0;
#X connect 9 0 15 4;
#X connect 9 0 40 0;
#X connect 11 0 12 0;
#X connect 12 0 18 0;
#X connect 13 0 17 0;
#X connect 14 0 13 0;
#X connect 15 0 5 0;
#X connect 16 0 11 0;
#X connect 16 0 14 0;
#X connect 17 0 46 0;
#X connect 18 0 45 0;
#X connect 19 0 7 1;
#X connect 21 0 4 0;
#X connect 22 0 27 0;
#X connect 22 0 33 0;
#X connect 22 1 26 0;
#X connect 22 2 25 0;
#X connect 22 2 37 0;
#X connect 23 0 26 1;
#X connect 23 0 26 2;
#X connect 24 0 28 4;
#X connect 25 0 3 0;
#X connect 26 0 21 0;
#X connect 27 0 28 0;
#X connect 28 0 20 0;
#X connect 29 0 31 0;
#X connect 30 0 29 0;
#X connect 32 0 34 4;
#X connect 33 0 34 0;
#X connect 34 0 31 0;
#X connect 35 0 36 0;
#X connect 35 0 41 0;
#X connect 35 0 49 0;
#X connect 35 0 58 0;
#X connect 36 0 35 1;
#X connect 37 1 35 0;
#X connect 38 0 21 0;
#X connect 39 0 38 0;
#X connect 40 0 38 0;
#X connect 41 0 19 0;
#X connect 41 0 47 0;
#X connect 41 0 48 0;
#X connect 47 0 12 1;
#X connect 48 0 13 1;
#X connect 49 0 52 0;
#X connect 50 0 51 0;
#X connect 51 0 53 0;
#X connect 52 0 50 0;
#X connect 53 0 54 0;
#X connect 54 0 45 2;
#X connect 55 0 56 0;
#X connect 56 0 57 0;
#X connect 57 0 60 0;
#X connect 58 0 59 0;
#X connect 59 0 55 0;
#X connect 60 0 46 1;
#X restore 282 547 pd EXAMPLE_named-fbo;
#X obj 218 6 declare -lib pof;
#X text 5 2 Pof: Pd OpenFrameworks externals;
#X connect 5 0 10 0;
#X connect 6 0 20 1;
#X connect 7 0 20 2;
#X connect 8 0 43 1;
#X connect 8 0 43 2;
#X connect 9 0 24 0;
#X connect 10 0 20 0;
#X connect 10 1 11 0;
#X connect 11 0 21 0;
#X connect 12 0 15 0;
#X connect 12 1 13 0;
#X connect 13 0 22 0;
#X connect 15 0 9 0;
#X connect 18 0 19 1;
#X connect 19 0 12 0;
#X connect 20 0 43 0;
#X connect 23 0 25 0;
#X connect 24 0 27 0;
#X connect 25 1 28 0;
#X connect 26 0 23 0;
#X connect 27 0 25 0;
#X connect 28 0 30 0;
#X connect 28 1 31 0;
#X connect 29 0 27 4;
#X connect 30 0 29 0;
#X connect 31 0 29 0;
#X connect 37 0 43 2;
#X connect 38 0 20 0;
#X connect 39 0 20 0;
#X connect 42 0 39 0;
#X connect 43 0 19 0;
