#N canvas 603 495 512 409 10;
#X declare -lib pof;
#X obj 20 235 cnv 15 140 30 empty empty empty 20 12 0 14 -261682 -66577
0;
#X obj 4 4 cnv 15 200 20 empty empty empty 20 12 0 14 -204786 -66577
0;
#X obj 4 26 cnv 15 200 20 empty empty empty 20 12 0 14 -262130 -66577
0;
#X text 33 25 (c) Antoine Rousseau 2014;
#X obj 4 57 cnv 15 370 35 empty empty empty 20 12 0 14 -261682 -66577
0;
#X obj 28 98 pofhead;
#X floatatom 80 103 5 0 0 0 - - -, f 5;
#X floatatom 133 103 5 0 0 0 - - -, f 5;
#X obj 28 171 pofrotate 45;
#X floatatom 74 193 5 0 0 0 - - -, f 5;
#X floatatom 121 194 5 0 0 0 - - -, f 5;
#X floatatom 97 151 5 0 0 0 - - -, f 5;
#X obj 28 214 pofscale 0.5 0.5;
#X obj 28 243 pofgetmatrix;
#X obj 197 100 bng 15 250 50 0 empty empty empty 17 7 0 10 -262144
-1 -1;
#X obj 62 363 print matrix;
#X obj 97 272 route translate rotate scale;
#X obj 97 299 unpack f f f;
#X floatatom 97 321 5 0 0 3 tx - -, f 5;
#X floatatom 131 321 5 0 0 3 ty - -, f 5;
#X floatatom 166 321 5 0 0 3 tz - -, f 5;
#X floatatom 217 322 5 0 0 3 alpha - -, f 5;
#X floatatom 256 322 5 0 0 3 rx - -, f 5;
#X floatatom 291 322 5 0 0 3 ry - -, f 5;
#X obj 380 299 unpack f f f;
#X floatatom 380 321 5 0 0 3 sx - -, f 5;
#X floatatom 414 321 5 0 0 3 sy - -, f 5;
#X floatatom 449 321 5 0 0 3 sz - -, f 5;
#X obj 28 130 poftranslate 50 50;
#X obj 217 300 unpack f f f f;
#X floatatom 326 322 5 0 0 3 rz - -, f 5;
#X text 9 57 pofgetmatrix : get current GL matrix \, and get its decomposition
to translate/rotate/scale parameters.;
#X obj 225 5 declare -lib pof;
#X text 6 3 Pof: Pd OpenFrameworks externals;
#X connect 5 0 28 0;
#X connect 6 0 28 1;
#X connect 7 0 28 2;
#X connect 8 0 12 0;
#X connect 9 0 12 1;
#X connect 10 0 12 2;
#X connect 11 0 8 1;
#X connect 12 0 13 0;
#X connect 13 1 15 0;
#X connect 13 2 16 0;
#X connect 14 0 13 0;
#X connect 16 0 17 0;
#X connect 16 1 29 0;
#X connect 16 2 24 0;
#X connect 17 0 18 0;
#X connect 17 1 19 0;
#X connect 17 2 20 0;
#X connect 24 0 25 0;
#X connect 24 1 26 0;
#X connect 24 2 27 0;
#X connect 28 0 8 0;
#X connect 29 0 21 0;
#X connect 29 1 22 0;
#X connect 29 2 23 0;
#X connect 29 3 30 0;
