#N canvas 156 356 343 227 10;
#X declare -lib pof;
#X declare -path .;
#X declare -path ../buildExternal/bin;
#X obj 187 15 pof_declare;
#X obj -24 3 cnv 15 200 20 empty empty empty 20 12 0 14 -204786 -66577
0;
#X text -22 2 Pof : Pd OpenFrameworks externals;
#X obj -24 25 cnv 15 200 20 empty empty empty 20 12 0 14 -262130 -66577
0;
#X text 5 24 (c) Antoine Rousseau 2014;
#X obj -24 56 cnv 15 250 20 empty empty empty 20 12 0 14 -261682 -66577
0;
#X obj 3 110 cnv 15 80 30 empty empty empty 20 12 0 14 -261682 -66577
0;
#X obj 14 116 pofhead;
#X obj 14 172 pofrect 200 200;
#X text -15 57 pofhead : root of a new drawing tree.;
#X text 162 193 todo : multiple windows;
#X text 94 109 Arguments : none;
#X text 94 124 Inlet 1 : none;
#X connect 7 0 8 0;
