#N canvas 495 82 714 684 10;
#X declare -lib pof;
#X obj 5 4 cnv 15 200 20 empty empty empty 20 12 0 14 -204786 -66577
0;
#X obj 5 26 cnv 15 200 20 empty empty empty 20 12 0 14 -262130 -66577
0;
#X text 34 25 (c) Antoine Rousseau 2014;
#X obj 5 57 cnv 15 240 20 empty empty empty 20 12 0 14 -261682 -66577
0;
#X obj 32 527 cnv 15 180 30 empty empty empty 20 12 0 14 -261682 -66577
0;
#X obj 38 91 pofhead;
#X text 294 125 Inlet 2: width;
#X floatatom 118 504 5 0 0 0 - - -, f 5;
#X floatatom 198 502 5 0 0 0 - - -, f 5;
#X text 294 138 Inlet 3: height;
#X text 11 57 pofimage : draw an image from a file.;
#X floatatom 198 607 5 0 0 0 - - -, f 5;
#X floatatom 255 608 5 0 0 0 - - -, f 5;
#X obj 198 587 unpack f f;
#X text 196 621 get image size;
#X msg 56 127 set img/pd.png;
#X text 212 98 Arguments : file [width [height]];
#X text 294 111 Inlet 1: set IMAGE.FILE;
#X msg 63 150 set img/of.png;
#X msg 73 170 set logo/pOf.png;
#X obj 39 536 pofimage logo/pOf.png 200 0;
#X text 234 471 if width = 0 \, respect ratio (and use height).;
#X text 234 483 if height = 0 \, respect ratio (and use width).;
#X text 234 498 if height = 0 and width = 0 \, use file dimensions.
;
#X msg 110 461 unreserve _all_;
#X msg 83 192 set img/moon.jpg;
#X msg 109 275 reserve img/moon.jpg;
#X msg 110 296 reserve img/pd.png;
#X msg 110 316 reserve img/of.png;
#X msg 110 336 reserve logo/pOf.png;
#X obj 436 580 pofimage;
#X obj 481 602 route monitor;
#X msg 487 549 setmonitor 1;
#X obj 487 527 loadbang;
#X floatatom 481 691 5 0 0 1 images_to_load_from_disk - -, f 5;
#X floatatom 515 669 5 0 0 1 images_to_load_from_web - -, f 5;
#X obj 436 527 pofhead;
#X obj 481 626 unpack f f f;
#X floatatom 550 648 5 0 0 1 images_loaded - -, f 5;
#N canvas 118 576 442 212 ALIAS_prefixed_path 0;
#X obj 34 61 pofutil;
#X msg 34 40 setstring img_dir img/;
#X obj 35 169 pofimage @[img_dir]/of.png;
#X obj 35 98 pofhead;
#X obj 35 120 pofvisible;
#X obj 95 98 tgl 15 0 empty empty empty 17 7 0 10 -262144 -1 -1 0 1
;
#X obj 35 140 poftranslate 150 0;
#X obj 34 20 loadbang;
#X text 208 32 Define global string...;
#X text 197 165 ...to be able to use a relative path.;
#X connect 1 0 0 0;
#X connect 3 0 4 0;
#X connect 4 0 6 0;
#X connect 5 0 4 0;
#X connect 6 0 2 0;
#X connect 7 0 1 0;
#X restore 44 670 pd ALIAS_prefixed_path;
#X text 198 163 As a texture : file TEX : then image won't be drawn
\, but instead will be selected for texturing following 3d shapes \;
see;
#X obj 240 194 pofplane;
#X msg 92 218 set https://raw.githubusercontent.com/Ant1r/ofxPof/master/screenshots/PofPlayer.jpg
;
#X msg 110 356 reserve https://raw.githubusercontent.com/Ant1r/ofxPof/master/screenshots/PofPlayer.jpg
;
#X msg 110 407 unreserve https://raw.githubusercontent.com/Ant1r/ofxPof/master/screenshots/PofPlayer.jpg
;
#X text 7 3 Pof: Pd OpenFrameworks externals;
#X obj 216 16 declare -lib pof;
#X msg 331 317 setcolor 10 10 0 0 0 1;
#N canvas 768 142 570 505 draw 0;
#X obj 116 457 outlet;
#X obj 185 215 t f b;
#X obj 185 237 until;
#X obj 185 259 i;
#X obj 185 281 + 1;
#X msg 223 238 0;
#X obj 185 303 t b f;
#X msg 185 194 10;
#X obj 116 224 t f b;
#X obj 116 246 until;
#X obj 116 268 i;
#X obj 116 290 + 1;
#X msg 152 247 0;
#X msg 116 203 10;
#X obj 116 312 f;
#X obj 116 359 pack f f;
#X obj 116 381 list append 1 0 0 1;
#X obj 116 403 list prepend setcolor;
#X obj 116 425 list trim;
#X msg 250 357 0 1 0 1;
#X obj 97 56 inlet;
#X obj 116 334 +;
#X obj 212 328 +;
#X obj 97 111 poftouch;
#X obj 303 17 inlet;
#X obj 303 40 route size;
#X obj 303 62 unpack f f;
#X obj 303 116 * 0.5;
#X obj 360 117 * 0.5;
#X obj 142 137 route down move;
#X obj 185 165 t b a;
#X obj 242 148 unpack f f;
#X obj 242 170 +;
#X obj 299 169 +;
#X obj 242 193 - 5;
#X obj 299 194 - 5;
#X msg 312 357 1 0 0 1;
#X connect 1 0 2 0;
#X connect 1 1 5 0;
#X connect 2 0 3 0;
#X connect 3 0 4 0;
#X connect 4 0 3 1;
#X connect 4 0 6 0;
#X connect 5 0 3 1;
#X connect 6 0 13 0;
#X connect 6 1 22 0;
#X connect 7 0 1 0;
#X connect 8 0 9 0;
#X connect 8 1 12 0;
#X connect 9 0 10 0;
#X connect 10 0 11 0;
#X connect 11 0 10 1;
#X connect 11 0 14 0;
#X connect 12 0 10 1;
#X connect 13 0 8 0;
#X connect 14 0 21 0;
#X connect 15 0 16 0;
#X connect 16 0 17 0;
#X connect 17 0 18 0;
#X connect 18 0 0 0;
#X connect 19 0 16 1;
#X connect 20 0 23 0;
#X connect 21 0 15 0;
#X connect 22 0 15 1;
#X connect 23 1 29 0;
#X connect 24 0 25 0;
#X connect 25 0 26 0;
#X connect 26 0 27 0;
#X connect 26 0 23 1;
#X connect 26 1 28 0;
#X connect 26 1 23 2;
#X connect 27 0 32 1;
#X connect 28 0 33 1;
#X connect 29 0 30 0;
#X connect 29 1 30 0;
#X connect 30 0 7 0;
#X connect 30 1 31 0;
#X connect 31 0 32 0;
#X connect 31 1 33 0;
#X connect 32 0 34 0;
#X connect 33 0 35 0;
#X connect 34 0 21 1;
#X connect 35 0 22 1;
#X connect 36 0 16 1;
#X restore 66 572 pd draw;
#X msg 343 297 setcolor 10 10 1 1 1 1;
#X msg 332 336 getcolor 10 10;
#X obj 288 596 unpack f f f f;
#X floatatom 288 662 5 0 0 1 r - -, f 5;
#X floatatom 315 646 5 0 0 1 v - -, f 5;
#X floatatom 342 631 5 0 0 1 b - -, f 5;
#X floatatom 369 616 5 0 0 1 a - -, f 5;
#X text 293 579 getcolor return:;
#X obj 494 274 pofutil;
#X msg 494 252 getdir;
#X msg 494 296 save \$1/logo/poftrashed.png;
#X msg 507 401 clear;
#X msg 508 350 crop 1 1 100 100;
#X msg 507 376 grab 10 10 100 100;
#X msg 507 425 resize 100 100;
#X obj 198 564 route size color saved;
#X symbolatom 417 638 10 0 0 3 saved - -, f 10;
#X obj 417 616 symbol;
#X obj 418 674 bng 15 250 50 0 empty empty empty 17 7 0 10 -262144
-1 -1;
#X connect 5 0 20 0;
#X connect 7 0 20 1;
#X connect 8 0 20 2;
#X connect 13 0 11 0;
#X connect 13 1 12 0;
#X connect 15 0 20 0;
#X connect 18 0 20 0;
#X connect 19 0 20 0;
#X connect 20 0 48 0;
#X connect 20 1 48 1;
#X connect 20 1 64 0;
#X connect 24 0 20 0;
#X connect 25 0 20 0;
#X connect 26 0 20 0;
#X connect 27 0 20 0;
#X connect 28 0 20 0;
#X connect 29 0 20 0;
#X connect 30 1 31 0;
#X connect 31 0 37 0;
#X connect 32 0 30 0;
#X connect 33 0 32 0;
#X connect 36 0 30 0;
#X connect 37 0 34 0;
#X connect 37 1 35 0;
#X connect 37 2 38 0;
#X connect 42 0 20 0;
#X connect 43 0 20 0;
#X connect 44 0 20 0;
#X connect 47 0 20 0;
#X connect 48 0 20 0;
#X connect 49 0 20 0;
#X connect 50 0 20 0;
#X connect 51 0 52 0;
#X connect 51 1 53 0;
#X connect 51 2 54 0;
#X connect 51 3 55 0;
#X connect 57 0 59 0;
#X connect 58 0 57 0;
#X connect 59 0 20 0;
#X connect 60 0 20 0;
#X connect 61 0 20 0;
#X connect 62 0 20 0;
#X connect 63 0 20 0;
#X connect 64 0 13 0;
#X connect 64 1 51 0;
#X connect 64 2 66 0;
#X connect 65 0 67 0;
#X connect 66 0 65 0;
