#N canvas 521 101 875 731 10;
#X declare -lib pof;
#X obj 5 3 cnv 15 200 20 empty empty empty 20 12 0 14 -204786 -66577
0;
#X obj 5 25 cnv 15 200 20 empty empty empty 20 12 0 14 -262130 -66577
0;
#X text 34 24 (c) Antoine Rousseau 2014;
#X obj 5 56 cnv 15 200 20 empty empty empty 20 12 0 14 -261682 -66577
0;
#X obj 24 225 cnv 15 140 30 empty empty empty 20 12 0 14 -261682 -66577
0;
#X symbolatom 31 393 20 0 0 1 loaded - -, f 20;
#X symbolatom 110 366 20 0 0 1 error_loading - -, f 20;
#X obj 31 343 symbol;
#X obj 110 344 symbol;
#X text 167 230 Arguments : reference_name;
#X text 10 56 pofjson : json file utilities.;
#X obj 31 233 pofjson testjson;
#X msg 31 89 load data/widget.json;
#X msg 243 98 gets widget debug;
#X msg 243 32 getsize widget;
#X msg 41 118 load foo;
#X msg 244 193 getf widget image hOffset;
#X obj 268 287 route float symbol;
#X floatatom 268 311 5 0 0 0 - - -, f 5;
#X symbolatom 320 314 50 0 0 1 - - -, f 50;
#X msg 242 121 gets widget window title;
#X msg 242 143 gets widget text onMouseUp;
#X msg 243 54 getsize widget text;
#X msg 59 512 gets widget debug;
#X msg 58 457 getsize widget;
#X msg 56 588 getf widget image hOffset;
#X msg 58 535 gets widget window title;
#X msg 58 557 gets widget text onMouseUp;
#X msg 58 480 getsize widget text;
#X obj 34 616 t a;
#X obj 229 604 t a;
#X obj 34 661 route float symbol;
#X floatatom 34 685 5 0 0 0 - - -, f 5;
#X symbolatom 86 686 50 0 0 1 - - -, f 50;
#X msg 260 453 getsize menu;
#X msg 263 497 getsize menu popup menuitem 0;
#X msg 262 475 getsize menu popup menuitem;
#X msg 263 529 gets menu popup menuitem 0 value;
#X msg 262 549 gets menu popup menuitem 0 onclick;
#X msg 262 601 gets menu popup menuitem 2 onclick;
#X msg 262 581 gets menu popup menuitem 2 value;
#X msg 34 435 load data/widget.json;
#X msg 229 429 load data/menu.json;
#X obj 34 637 pofjson testjson2;
#X obj 438 78 pofjson testjson;
#X msg 438 58 gets widget image src;
#X symbolatom 438 99 20 0 0 1 - - -, f 20;
#X obj 440 156 pofjson testjson;
#X symbolatom 440 177 20 0 0 1 - - -, f 20;
#X obj 441 238 pofjson testjson;
#X floatatom 441 262 5 0 0 0 - - -, f 5;
#X msg 440 136 gets widget image name;
#X msg 441 215 getf widget text vOffset;
#X msg 485 411 load http://www.w3schools.com/website/Customers_MYSQL.php
;
#X obj 599 147 pofjson testjson;
#X obj 599 171 print;
#X msg 599 124 gets;
#X obj 485 460 pofjson testjson3;
#X obj 485 505 b;
#X msg 485 526 getsize;
#X obj 485 545 pofjson testjson3;
#X floatatom 485 566 5 0 0 0 - - -, f 5;
#X obj 486 655 pofjson testjson3;
#X msg 486 633 gets \$1 City;
#X symbolatom 486 677 15 0 0 0 - - -, f 15;
#X obj 486 611 hradio 15 1 0 17 empty empty empty 0 -8 0 10 -262144
-1 -1 13;
#X obj 610 656 pofjson testjson3;
#X symbolatom 610 678 15 0 0 0 - - -, f 15;
#X msg 610 634 gets \$1 Country;
#X obj 675 538 metro 50;
#X obj 675 566 random 17;
#X obj 675 515 tgl 15 0 empty empty empty 17 7 0 10 -262144 -1 -1 0
1;
#X obj 481 384 pofutil;
#X msg 481 360 setstring baseurl http://www.w3schools.com/website;
#X obj 481 336 loadbang;
#X msg 500 435 load @[baseurl]/Customers_MYSQL.php;
#X text 242 13 get element size:;
#X text 240 80 get element as symbol (string):;
#X text 240 175 get element as float (number):;
#X text 434 38 Refer to an existing pofjson :;
#X text 551 325 You can use an @[alias] when loading :;
#X obj 390 9 cnv 15 340 20 empty empty empty 20 12 0 14 -232576 -66577
0;
#X text 393 8 note : pofjson currently only performs read operations.
;
#X text 7 2 Pof: Pd OpenFrameworks externals;
#X obj 740 10 declare -lib pof;
#X obj 31 266 route loaded error_loading error_running;
#X obj 189 295 bng 15 250 50 0 empty empty still_running_error -60
22 0 10 -262144 -1 -1;
#X msg 52 142 cancel;
#X text 47 159 don't send loaded when finished;
#X obj 485 484 route loaded error_running;
#X obj 561 510 bng 15 250 50 0 empty empty empty 17 7 0 10 -262144
-1 -1;
#X obj 485 582 bng 15 250 50 0 empty empty empty 17 7 0 10 -262144
-1 -1;
#X connect 7 0 5 0;
#X connect 8 0 6 0;
#X connect 11 0 85 0;
#X connect 12 0 11 0;
#X connect 13 0 11 0;
#X connect 14 0 11 0;
#X connect 15 0 11 0;
#X connect 16 0 11 0;
#X connect 17 0 18 0;
#X connect 17 1 19 0;
#X connect 20 0 11 0;
#X connect 21 0 11 0;
#X connect 22 0 11 0;
#X connect 23 0 29 0;
#X connect 24 0 29 0;
#X connect 25 0 29 0;
#X connect 26 0 29 0;
#X connect 27 0 29 0;
#X connect 28 0 29 0;
#X connect 29 0 43 0;
#X connect 30 0 43 0;
#X connect 31 0 32 0;
#X connect 31 1 33 0;
#X connect 34 0 30 0;
#X connect 35 0 30 0;
#X connect 36 0 30 0;
#X connect 37 0 30 0;
#X connect 38 0 30 0;
#X connect 39 0 30 0;
#X connect 40 0 30 0;
#X connect 41 0 29 0;
#X connect 42 0 30 0;
#X connect 43 0 31 0;
#X connect 44 0 46 0;
#X connect 45 0 44 0;
#X connect 47 0 48 0;
#X connect 49 0 50 0;
#X connect 51 0 47 0;
#X connect 52 0 49 0;
#X connect 53 0 57 0;
#X connect 54 0 55 0;
#X connect 56 0 54 0;
#X connect 57 0 89 0;
#X connect 58 0 59 0;
#X connect 59 0 60 0;
#X connect 60 0 61 0;
#X connect 61 0 91 0;
#X connect 62 0 64 0;
#X connect 63 0 62 0;
#X connect 65 0 63 0;
#X connect 65 0 68 0;
#X connect 66 0 67 0;
#X connect 68 0 66 0;
#X connect 69 0 70 0;
#X connect 70 0 65 0;
#X connect 71 0 69 0;
#X connect 73 0 72 0;
#X connect 74 0 73 0;
#X connect 75 0 57 0;
#X connect 85 0 7 0;
#X connect 85 1 8 0;
#X connect 85 2 86 0;
#X connect 85 3 17 0;
#X connect 87 0 11 0;
#X connect 89 0 58 0;
#X connect 89 1 90 0;
