#N canvas 525 411 485 311 10;
#X declare -lib pof;
#X floatatom 51 185 5 0 0 0 - - -, f 5;
#X obj 51 153 unpack f f;
#X floatatom 118 184 5 0 0 0 - - -, f 5;
#X obj 197 175 tgl 15 0 empty empty Shift_L -10 21 0 10 -262144 -1
-1 0 1;
#X obj 197 154 route 2305 769 1281 1282 770 2306;
#X obj 235 188 tgl 15 0 empty empty Ctr_L -10 21 0 10 -262144 -1 -1
0 1;
#X obj 273 201 tgl 15 0 empty empty Alt_L -10 21 0 10 -262144 -1 -1
0 1;
#X obj 311 176 tgl 15 0 empty empty Alt_R -10 21 0 10 -262144 -1 -1
0 1;
#X obj 349 190 tgl 15 0 empty empty Ctr_R -10 21 0 10 -262144 -1 -1
0 1;
#X obj 387 203 tgl 15 0 empty empty Shift_R -10 21 0 10 -262144 -1
-1 0 1;
#X obj 54 244 hsl 30 30 0 127 0 0 empty empty :y 0 15 0 20 -1 -1 -262144
0 1;
#N canvas 1 89 450 300 label 0;
#X obj 118 37 inlet;
#X obj 210 181 outlet;
#X obj 118 65 moses 32;
#X obj 210 129 list tosymbol;
#X obj 171 108 sel 92;
#X text 180 68 keep only ascii;
#X text 220 109 reject backslash;
#X obj 171 86 moses 123;
#X msg 210 152 label :\$1;
#X connect 0 0 2 0;
#X connect 2 1 7 0;
#X connect 3 0 8 0;
#X connect 4 1 3 0;
#X connect 7 0 4 0;
#X connect 8 0 1 0;
#X restore 51 216 pd label;
#X obj 51 131 r #pofkey;
#X obj 197 132 r #pofkey;
#X obj 3 3 cnv 15 230 20 empty empty empty 20 12 0 14 -204786 -66577
0;
#X obj 3 25 cnv 15 200 20 empty empty empty 20 12 0 14 -262130 -66577
0;
#X obj 3 56 cnv 15 350 20 empty empty empty 20 12 0 14 -261682 -66577
0;
#X obj 245 3 declare -lib pof;
#X text 5 2 Pof: Pd OpenFrameworks externals;
#X text 5 27 (c) Antoine Rousseau 2016;
#X text 8 57 #pofkey : keyboard channel;
#X text 25 94 To receive key events in Pof \, just use a [receive #pofkey]:
, f 63;
#X connect 0 0 11 0;
#X connect 1 0 0 0;
#X connect 1 1 2 0;
#X connect 4 0 3 0;
#X connect 4 1 5 0;
#X connect 4 2 6 0;
#X connect 4 3 7 0;
#X connect 4 4 8 0;
#X connect 4 5 9 0;
#X connect 11 0 10 0;
#X connect 12 0 1 0;
#X connect 13 0 4 0;
