#N canvas 805 241 465 535 10;
#X declare -lib pof;
#X obj 9 177 cnv 15 130 80 empty empty empty 20 12 0 14 -204786 -66577
0;
#X obj 148 179 cnv 15 130 80 empty empty empty 20 12 0 14 -204786 -66577
0;
#X obj 6 271 cnv 15 100 70 empty empty empty 20 12 0 14 -257985 -66577
0;
#X obj 4 400 cnv 15 130 60 empty empty empty 20 12 0 14 -261682 -66577
0;
#X obj 149 401 cnv 15 130 60 empty empty empty 20 12 0 14 -261682 -66577
0;
#X obj 5 4 cnv 15 200 20 empty empty empty 20 12 0 14 -204786 -66577
0;
#X obj 5 26 cnv 15 200 20 empty empty empty 20 12 0 14 -262130 -66577
0;
#X obj 5 57 cnv 15 330 20 empty empty empty 20 12 0 14 -261682 -66577
0;
#X obj 12 119 pofhead;
#X text 7 3 Pof: Pd OpenFrameworks externals;
#X obj 216 16 declare -lib pof;
#X text 34 25 (c) Antoine Rousseau 2018;
#X obj 12 439 pofcirc 200 200 100;
#X text 9 59 poflayer: multiplex multiple layers on the same tree;
#X text 139 94 Arguments : layer_name;
#X text 157 106 Inlet 1: layer new_layer_name;
#X obj 12 140 t a a, f 24;
#X obj 12 186 poflayer Layer1;
#X obj 153 186 poflayer Layer2;
#X obj 12 319 poftranslate;
#X msg 172 143 layer Layer2;
#X msg 172 161 layer Layer3;
#X obj 159 441 pofrect 150 200 10;
#X obj 153 233 poftranslate 120 0;
#X obj 12 232 poftranslate -120 0;
#X floatatom 58 297 5 0 0 0 - - -;
#X floatatom 188 212 5 0 0 0 - - -;
#X obj 159 418 pofvisible Layer2;
#X obj 12 415 pofvisible Layer1;
#X obj 181 395 tgl 15 0 empty empty empty 17 7 0 10 -262144 -1 -1 0
1;
#X obj 12 275 t a;
#X obj 12 375 t a a, f 25;
#X text 281 206 <- per-layer pre-processing;
#X text 284 285 <- common processing;
#X text 287 410 <- per-layer rendering;
#X obj 129 492 pofvisible LAYER;
#X text 91 474 note: [pofvisible LAYER] is "visible" by default i.e.:
, f 48;
#X text 236 490 =;
#X obj 249 491 pofvisible LAYER 1;
#X text 236 512 =;
#X obj 249 513 pofvisible 1 LAYER;
#X msg 180 330 layer Layer2;
#X msg 180 350 layer Layer3;
#X msg 180 371 nolayer;
#X text 229 371 disable layer filtering;
#X connect 8 0 16 0;
#X connect 16 0 17 0;
#X connect 16 1 18 0;
#X connect 17 0 24 0;
#X connect 18 0 23 0;
#X connect 19 0 31 0;
#X connect 20 0 18 0;
#X connect 21 0 18 0;
#X connect 23 0 30 0;
#X connect 24 0 30 0;
#X connect 25 0 19 2;
#X connect 26 0 23 1;
#X connect 27 0 22 0;
#X connect 28 0 12 0;
#X connect 29 0 27 0;
#X connect 30 0 19 0;
#X connect 31 0 28 0;
#X connect 31 1 27 0;
#X connect 41 0 27 0;
#X connect 42 0 27 0;
#X connect 43 0 27 0;
