#N canvas 766 96 784 508 10;
#X declare -lib pof;
#X obj 9 12 cnv 15 200 20 empty empty empty 20 12 0 14 -204786 -66577
0;
#X obj 9 34 cnv 15 200 20 empty empty empty 20 12 0 14 -262130 -66577
0;
#X obj 10 65 cnv 15 200 20 empty empty empty 20 12 0 14 -261682 -66577
0;
#X obj 307 377 cnv 15 120 30 empty empty empty 20 12 0 14 -261682 -66577
0;
#X obj 220 24 declare -lib pof;
#X text 11 11 Pof: Pd OpenFrameworks externals;
#X text 38 33 (c) Antoine Rousseau 2019;
#X text 15 64 pofonce : draw next frame;
#X text 339 86 Argument :;
#X text 398 117 force: draw next frame and force subsequent [once]s
to draw as well., f 44;
#X text 398 148 continuousForce (0/1): draw forced continuously;
#X obj 27 270 cnv 15 120 30 empty empty empty 20 12 0 14 -261682 -66577
0;
#X obj 26 380 cnv 15 120 30 empty empty empty 20 12 0 14 -261682 -66577
0;
#X obj 165 382 cnv 15 120 30 empty empty empty 20 12 0 14 -261682 -66577
0;
#X text 339 99 Inlet 1 : bang: draw next frame;
#X obj 32 117 pofhead;
#X obj 32 412 pofcolor 1 0 0 1;
#X obj 32 433 pofcirc 200;
#X obj 32 186 poffbo 400 300;
#X msg 47 163 clear 0;
#X obj 47 142 loadbang;
#X obj 32 354 t a a a, f 47;
#X obj 311 409 pofcolor 0 0 0 1;
#X obj 311 430 pofrect 400 300;
#X obj 171 413 pofcolor 1 1 1 1;
#X obj 171 434 pofrect 50 300;
#X msg 182 206 force;
#X text 217 180 draw next frame;
#X obj 141 298 bng 15 250 50 0 empty empty empty 17 7 0 10 -262144
-1 -1;
#X obj 231 294 bng 15 250 50 0 empty empty empty 17 7 0 10 -262144
-1 -1;
#X obj 343 297 bng 15 250 50 0 empty empty empty 17 7 0 10 -262144
-1 -1;
#X text 221 205 force this and every subsequent [once] to also draw
next frame;
#X msg 183 180 bang;
#X obj 32 275 pofonce;
#X obj 32 391 pofonce;
#X obj 171 392 pofonce;
#X obj 311 388 pofonce;
#X obj 311 453 pofbang 1;
#X obj 362 476 bng 15 250 50 0 empty empty empty 17 7 0 10 -262144
-1 -1;
#X obj 32 309 pofbang 1;
#X obj 83 332 bng 15 250 50 0 empty empty empty 17 7 0 10 -262144 -1
-1;
#X obj 171 454 pofbang 1;
#X obj 222 477 bng 15 250 50 0 empty empty empty 17 7 0 10 -262144
-1 -1;
#X obj 32 453 pofbang 1;
#X obj 83 476 bng 15 250 50 0 empty empty empty 17 7 0 10 -262144 -1
-1;
#X obj 183 232 tgl 15 0 empty empty empty 17 7 0 10 -262144 -1 -1 0
1;
#X msg 183 252 continuousForce \$1;
#X floatatom 463 370 5 0 0 0 - - -;
#X text 220 54 pofonce allows to optimize your drawings by using a
persistent framebuffer \, and ask to draw only changing parts.;
#X obj 473 287 pofonce -continuousForce;
#X text 470 257 continuousForce can also be initialized at boot time:
, f 29;
#X connect 15 0 18 0;
#X connect 16 0 17 0;
#X connect 17 0 43 0;
#X connect 18 0 33 0;
#X connect 19 0 18 0;
#X connect 20 0 19 0;
#X connect 21 0 34 0;
#X connect 21 1 35 0;
#X connect 21 2 36 0;
#X connect 22 0 23 0;
#X connect 23 0 37 0;
#X connect 24 0 25 0;
#X connect 25 0 41 0;
#X connect 26 0 33 0;
#X connect 28 0 34 0;
#X connect 29 0 35 0;
#X connect 30 0 36 0;
#X connect 32 0 33 0;
#X connect 33 0 39 0;
#X connect 34 0 16 0;
#X connect 35 0 24 0;
#X connect 36 0 22 0;
#X connect 37 1 38 0;
#X connect 39 0 21 0;
#X connect 39 1 40 0;
#X connect 41 1 42 0;
#X connect 43 1 44 0;
#X connect 45 0 46 0;
#X connect 46 0 33 0;
#X connect 47 0 23 1;
#X connect 47 0 30 0;
