#N canvas 681 83 755 755 10;
#X declare -lib pof;
#X obj 9 13 cnv 15 200 20 empty empty empty 20 12 0 14 -204786 -66577
0;
#X obj 9 35 cnv 15 200 20 empty empty empty 20 12 0 14 -262130 -66577
0;
#X text 38 34 (c) Antoine Rousseau 2014;
#X obj 9 66 cnv 15 200 20 empty empty empty 20 12 0 14 -261682 -66577
0;
#X obj 222 668 cnv 15 120 30 empty empty empty 20 12 0 14 -261682 -66577
0;
#X obj 41 103 pofhead;
#X msg 187 266 res \$1;
#X floatatom 187 247 5 0 0 0 - - -, f 5;
#X obj 245 12 declare -lib pof;
#X text 11 12 Pof: Pd OpenFrameworks externals;
#X text 18 66 pofpath : draw a path.;
#X msg 204 296 clear;
#X msg 293 448 filled \$1;
#X obj 293 429 tgl 15 0 empty empty empty 17 7 0 10 -262144 -1 -1 0
1;
#X msg 297 502 strokeColor 1 0 0 1;
#X msg 298 551 strokeWidth \$1;
#X floatatom 298 530 5 0 0 0 - - -, f 5;
#X msg 286 335 arc 0 0 0 150 100 0 180;
#X msg 292 403 close;
#X obj 500 363 until;
#X msg 500 318 50;
#X floatatom 145 114 5 0 0 0 - - -, f 5;
#X obj 41 148 pofrotate y;
#X msg 531 316 10;
#X msg 292 475 fillColor 0 1 1 1;
#X msg 391 149 100 100;
#X msg 330 149 -100 100;
#X msg 455 149 100 -100;
#X msg 352 56 setcolor 0 0 1 0 0 1 \, setcolor 1 0 0 1 0 1;
#X msg 232 55 resize 20 20;
#X obj 41 125 poftranslate;
#X floatatom 93 102 5 0 0 0 - - -, f 5;
#X msg 463 541 scale \$1 \$1;
#X floatatom 463 518 5 0 0 0 - - -, f 5;
#N canvas 236 354 450 300 curveToRandom 0;
#X obj 143 11 inlet;
#X obj 143 36 t b b b;
#X obj 143 58 random 200;
#X obj 143 80 - 100;
#X obj 171 104 random 200;
#X obj 171 126 - 100;
#X obj 208 126 random 200;
#X obj 207 148 - 100;
#X obj 143 174 pack f f f;
#X msg 143 193 curveTo \$1 \$2 \$3;
#X obj 143 215 outlet;
#X connect 0 0 1 0;
#X connect 1 0 2 0;
#X connect 1 1 4 0;
#X connect 1 2 6 0;
#X connect 2 0 3 0;
#X connect 3 0 8 0;
#X connect 4 0 5 0;
#X connect 5 0 8 1;
#X connect 6 0 7 0;
#X connect 7 0 8 2;
#X connect 8 0 9 0;
#X connect 9 0 10 0;
#X restore 500 384 pd curveToRandom;
#X msg 287 366 arc 0 0 0 100 100 0 360;
#X msg 561 315 1;
#X text 35 87 Arguments : texture_width texture_heigth;
#X obj 59 186 pofimage logo/pOf.png tex;
#X msg 266 148 -100 -100;
#X msg 266 178 moveTo \$1 \$2;
#X msg 393 206 100 100;
#X msg 332 206 -100 100;
#X msg 457 206 100 -100;
#X msg 268 205 -100 -100;
#X msg 401 264 100 100;
#X msg 340 264 -100 100;
#X msg 465 264 100 -100;
#X msg 276 263 -100 -100;
#X msg 268 235 lineTo \$1 \$2;
#X msg 276 293 curveTo \$1 \$2;
#X obj 228 625 t a;
#X obj 228 675 pofpath 200 200;
#X obj 41 681 pofpath;
#X obj 59 575 pofvisible;
#X obj 41 634 pofvisible;
#X obj 51 609 == 0;
#X obj 107 515 tgl 15 0 empty empty empty 17 7 0 10 -262144 -1 -1 0
1;
#X obj 296 617 loadbang;
#X msg 296 639 mesh 1 \, filled 1;
#X text 460 563 scale texture to the requested size \; if width or
height is null \, then scale at native texture size., f 42;
#X connect 5 0 30 0;
#X connect 6 0 51 0;
#X connect 7 0 6 0;
#X connect 11 0 51 0;
#X connect 12 0 51 0;
#X connect 13 0 12 0;
#X connect 14 0 51 0;
#X connect 15 0 51 0;
#X connect 16 0 15 0;
#X connect 17 0 51 0;
#X connect 18 0 51 0;
#X connect 19 0 34 0;
#X connect 20 0 19 0;
#X connect 21 0 22 1;
#X connect 22 0 38 0;
#X connect 22 0 55 0;
#X connect 23 0 19 0;
#X connect 24 0 51 0;
#X connect 25 0 40 0;
#X connect 26 0 40 0;
#X connect 27 0 40 0;
#X connect 28 0 38 0;
#X connect 29 0 38 0;
#X connect 30 0 22 0;
#X connect 31 0 30 1;
#X connect 32 0 51 0;
#X connect 33 0 32 0;
#X connect 34 0 51 0;
#X connect 35 0 51 0;
#X connect 36 0 19 0;
#X connect 38 0 54 0;
#X connect 39 0 40 0;
#X connect 40 0 51 0;
#X connect 41 0 49 0;
#X connect 42 0 49 0;
#X connect 43 0 49 0;
#X connect 44 0 49 0;
#X connect 45 0 50 0;
#X connect 46 0 50 0;
#X connect 47 0 50 0;
#X connect 48 0 50 0;
#X connect 49 0 51 0;
#X connect 50 0 51 0;
#X connect 51 0 52 0;
#X connect 51 0 53 0;
#X connect 54 0 52 0;
#X connect 55 0 53 0;
#X connect 56 0 55 0;
#X connect 57 0 54 0;
#X connect 57 0 56 0;
#X connect 58 0 59 0;
#X connect 59 0 52 0;
