#N canvas 491 502 582 398 10;
#X declare -lib pof;
#X obj 9 13 cnv 15 200 20 empty empty empty 20 12 0 14 -204786 -66577
0;
#X obj 9 35 cnv 15 200 20 empty empty empty 20 12 0 14 -262130 -66577
0;
#X text 38 34 (c) Antoine Rousseau 2014;
#X obj 9 66 cnv 15 200 20 empty empty empty 20 12 0 14 -261682 -66577
0;
#X obj 34 328 cnv 15 120 30 empty empty empty 20 12 0 14 -261682 -66577
0;
#X obj 41 139 pofhead;
#X text 170 190 Inlet 2: width;
#X floatatom 84 302 5 0 0 0 - - -, f 5;
#X floatatom 128 304 5 0 0 0 - - -, f 5;
#X text 18 66 pofrect : draw a rectangle.;
#X msg 60 228 rounded \$1;
#X floatatom 60 209 5 0 0 0 - - -, f 5;
#X msg 52 182 res \$1;
#X floatatom 52 163 5 0 0 0 - - -, f 5;
#X text 170 202 Inlet 3: height \; if height=0 \, then height=width.
;
#X text 169 147 Inlet 1: res (resolution);
#X text 222 160 rounded Radius;
#X obj 41 334 pofrect 200 200;
#X text 240 113 topRightR bottomRightR bottomLeftR resolution;
#X text 35 87 Arguments : width height;
#X text 47 100 Rounded : width height Radius;
#X text 35 113 Rounded 4 : width height topLeftR;
#X text 222 172 rounded topLeftR topRightR bottomRightR bottomLeftR
;
#X floatatom 63 252 5 0 0 0 - - -, f 5;
#X msg 63 272 rounded 100 30 \$1 10;
#X obj 223 15 declare -lib pof;
#X text 11 12 Pof: Pd OpenFrameworks externals;
#X connect 5 0 17 0;
#X connect 7 0 17 1;
#X connect 8 0 17 2;
#X connect 10 0 17 0;
#X connect 11 0 10 0;
#X connect 12 0 17 0;
#X connect 13 0 12 0;
#X connect 23 0 24 0;
#X connect 24 0 17 0;
