#N canvas 573 100 464 592 10;
#X declare -lib pof;
#X obj 7 3 cnv 15 200 20 empty empty empty 20 12 0 14 -204786 -66577
0;
#X obj 7 25 cnv 15 200 20 empty empty empty 20 12 0 14 -262130 -66577
0;
#X obj 7 56 cnv 15 250 20 empty empty empty 20 12 0 14 -261682 -66577
0;
#X obj 129 356 cnv 15 120 30 empty empty empty 20 12 0 14 -261682 -66577
0;
#X obj 41 117 pofhead;
#X text 289 275 Inlet 1: res (resolution);
#X msg 245 299 res \$1;
#X floatatom 245 275 5 0 0 0 - - -, f 5;
#X obj 41 166 pofdepthtest;
#X text 16 56 pofsphere : draw a (textured) sphere.;
#X obj 41 212 t a a;
#X obj 68 236 pofimage img/bikers.jpg tex;
#X obj 41 433 pofimage logo/pOf.png tex;
#X obj 41 478 pofrotate;
#X obj 68 260 pofrotate y;
#X obj 68 284 pofcolor 1 0.2 0 1;
#X floatatom 247 329 5 0 0 0 - - -, f 5;
#X text 291 328 Inlet 2: radius;
#X obj 136 361 pofsphere 120 50;
#X obj 41 525 poftranslate 15.37 15.37;
#X obj 41 547 pofplane 433 300;
#X obj 41 503 pofscale 0.6 0.6;
#X obj 41 189 pofrotate y 42;
#X obj 41 456 poftranslate 0 0 117;
#N canvas 196 281 442 437 turn 0;
#X obj 51 11 inlet;
#X obj 192 96 f;
#X obj 167 97 +;
#X obj 51 40 pofbang 1;
#X obj 195 44 hsl 128 15 0.001 0.05 1 0 empty empty empty -2 -8 0 10
-262144 -1 -1 0 1;
#X msg 206 70 0;
#X obj 167 208 cos;
#X obj 167 185 * 3.14159;
#X obj 167 122 t f f;
#X obj 194 144 i;
#X obj 167 164 -;
#X obj 167 368 * 360;
#X obj 167 254 * 0.5;
#X obj 167 232 + 1;
#X obj 167 299 cos;
#X obj 167 276 * 3.14159;
#X obj 167 345 * 0.5;
#X obj 167 323 + 1;
#X obj 165 73 0.005;
#X obj 92 7 tgl 15 0 empty empty empty 17 7 0 10 -262144 -1 -1 0 1
;
#X obj 127 130 f;
#X obj 102 131 +;
#X obj 102 110 1;
#X obj 167 389 outlet;
#X obj 102 153 outlet;
#X connect 0 0 3 0;
#X connect 1 0 2 1;
#X connect 2 0 1 0;
#X connect 2 0 8 0;
#X connect 3 1 18 0;
#X connect 3 1 22 0;
#X connect 4 0 18 1;
#X connect 5 0 18 1;
#X connect 6 0 13 0;
#X connect 7 0 6 0;
#X connect 8 0 10 0;
#X connect 8 1 9 0;
#X connect 9 0 10 1;
#X connect 10 0 7 0;
#X connect 11 0 23 0;
#X connect 12 0 15 0;
#X connect 13 0 12 0;
#X connect 14 0 17 0;
#X connect 15 0 14 0;
#X connect 16 0 11 0;
#X connect 17 0 16 0;
#X connect 18 0 2 0;
#X connect 19 0 3 0;
#X connect 20 0 21 1;
#X connect 21 0 20 0;
#X connect 21 0 24 0;
#X connect 22 0 21 0;
#X restore 122 162 pd turn;
#X text 253 241 Arguments : radius resolution;
#X text 36 24 (c) Antoine Rousseau 2015;
#X obj 218 15 declare -lib pof;
#X text 9 2 Pof: Pd OpenFrameworks externals;
#X connect 4 0 8 0;
#X connect 4 0 24 0;
#X connect 6 0 18 0;
#X connect 7 0 6 0;
#X connect 8 0 22 0;
#X connect 10 0 12 0;
#X connect 10 1 11 0;
#X connect 11 0 14 0;
#X connect 12 0 23 0;
#X connect 13 0 21 0;
#X connect 14 0 15 0;
#X connect 15 0 18 0;
#X connect 16 0 18 1;
#X connect 19 0 20 0;
#X connect 21 0 19 0;
#X connect 22 0 10 0;
#X connect 23 0 13 0;
#X connect 24 0 22 1;
#X connect 24 1 14 1;
#X connect 24 1 13 1;
