#N canvas 805 89 501 319 10;
#X declare -lib pof;
#X obj 18 17 cnv 15 200 20 empty empty empty 20 12 0 14 -204786 -66577
0;
#X obj 18 39 cnv 15 200 20 empty empty empty 20 12 0 14 -262130 -66577
0;
#X text 47 38 (c) Antoine Rousseau 2014;
#X obj 18 70 cnv 15 200 20 empty empty empty 20 12 0 14 -261682 -66577
0;
#X obj 19 182 cnv 15 140 30 empty empty empty 20 12 0 14 -261682 -66577
0;
#X obj 26 100 pofhead;
#X floatatom 66 143 5 0 0 0 - - -, f 5;
#X floatatom 107 163 5 0 0 0 - - -, f 5;
#X obj 26 250 pofrect 200 100;
#X text 167 180 Inlet 2: x;
#X text 167 192 Inlet 3: y;
#X obj 69 125 hsl 128 15 0 4 0 0 empty empty empty -2 -8 0 10 -262144
-1 -1 0 1;
#X obj 110 145 hsl 128 15 0 4 0 0 empty empty empty -2 -8 0 10 -262144
-1 -1 0 1;
#X text 23 70 pofscale : scale following tree.;
#X obj 229 29 declare -lib pof;
#X text 20 16 Pof: Pd OpenFrameworks externals;
#X text 168 206 Inlet 4: z \, if 3d init vector:;
#X text 161 165 Arguments : initial vector(x \, y) or (x \, y \, z)
;
#X obj 354 206 pofscale 0.5 1 2;
#X obj 26 190 pofscale 0.5 1;
#X text 52 281 Warning: If any of the vector components (x \, y or
z) is zero \, then the [pofscale] is discarded (bypassed).;
#X connect 5 0 19 0;
#X connect 6 0 19 1;
#X connect 7 0 19 2;
#X connect 11 0 6 0;
#X connect 12 0 7 0;
#X connect 19 0 8 0;
