#N canvas 410 131 967 607 10;
#X declare -lib pof;
#X msg 257 101 load shader/blur;
#X msg 61 297 play \$1;
#X obj 61 275 tgl 15 0 empty empty empty 17 7 0 10 -262144 -1 -1 0
1;
#X msg 280 185 2f distance \$1 \$1;
#X floatatom 280 167 5 0 0 0 - - -, f 5;
#X obj 26 99 pofhead;
#X obj 249 5 declare -lib pof;
#X obj 26 577 pofplane 400 300;
#X obj 26 121 t a a a;
#X obj 45 164 pofimage img/bikers.jpg im1;
#X obj 26 187 poftexture im1;
#X obj 65 142 pofimage img/moon.jpg 500 im2;
#X msg 270 124 load shader/blur.vert shader/blur.frag;
#X obj 283 148 hsl 128 15 0.1 10 1 0 empty empty empty -2 -8 0 10 -262144
-1 -1 7000 1;
#X obj 257 216 t a;
#X obj 258 490 t a;
#X obj 297 359 hsl 128 15 0 1 0 0 empty empty empty -2 -8 0 10 -258113
-1 -1 7500 1;
#X obj 295 322 tgl 15 0 empty empty empty 17 7 0 10 -262144 -1 -1 1
1;
#X obj 298 280 hsl 128 15 0 1 0 0 empty empty empty -2 -8 0 10 -262144
-1 -1 12700 1;
#X msg 295 299 f alpha \$1;
#X msg 118 297 print;
#X obj 294 445 hsl 128 15 0 1 0 0 empty empty empty -2 -8 0 10 -128992
-1 -1 2400 1;
#X obj 292 406 tgl 15 0 empty empty empty 17 7 0 10 -262144 -1 -1 1
1;
#X obj 435 404 hsl 128 15 0 1 0 0 empty empty empty -2 -8 0 10 -262144
-1 -1 5800 1;
#X obj 435 446 hsl 128 15 0 1 0 0 empty empty empty -2 -8 0 10 -262144
-1 -1 9600 1;
#X msg 258 256 load shader/colorEngine;
#X msg 294 377 3f color 1 \$1 \$1;
#X msg 295 339 f colorOn \$1;
#X msg 291 464 3f chromaKey \$1 \$1 \$1;
#X msg 432 424 f chromaThreshold \$1;
#X msg 432 464 f chromaFade \$1;
#X msg 292 423 f chromaKeyOn \$1;
#X obj 294 533 hsl 128 15 -1 1 0 0 empty empty empty -2 -8 0 10 -262144
-1 -1 4700 1;
#X msg 291 570 f brightness \$1;
#X obj 291 496 tgl 15 0 empty empty empty 17 7 0 10 -262144 -1 -1 1
1;
#X msg 291 513 f bcsOn \$1;
#X obj 431 532 hsl 128 15 1 8 1 0 empty empty empty -2 -8 0 10 -262144
-1 -1 12500 1;
#X msg 428 572 f contrast \$1;
#X floatatom 428 552 5 0 0 0 - - -, f 5;
#X floatatom 291 553 5 0 0 0 - - -, f 5;
#X obj 5 4 cnv 15 200 20 empty empty empty 20 12 0 14 -204786 -66577
0;
#X obj 5 26 cnv 15 200 20 empty empty empty 20 12 0 14 -262130 -66577
0;
#X obj 5 57 cnv 15 240 20 empty empty empty 20 12 0 14 -261682 -66577
0;
#X text 7 3 Pof: Pd OpenFrameworks externals;
#X text 11 57 pofshader : load and control a shader.;
#X obj 11 408 cnv 15 180 30 empty empty empty 20 12 0 14 -261682 -66577
0;
#X obj 26 414 pofshader;
#X text 458 6 Inlet 1: play (0/1);
#X text 512 17 print : print every active uniform information to stdout
(not Pd console), f 75;
#X text 511 30 load SHADER : load SHADER.vert and SHADER.frag;
#X text 511 42 load SHADER.vert SHADER.frag : ...;
#X text 511 55 f VAR VALUE : set a uniform of type float or bool;
#X text 511 68 2f VAR V1 V2 : set a uniform of type vec2f;
#X text 511 80 3f VAR V1 V2 V3: set a uniform of type vec3f;
#X text 511 91 4f VAR V1 V2 V3 V4: set a uniform of type vec4f, f
60;
#X text 512 103 tex VAR POFTEXTURE LOCATION : assign Pof texture named
POFTEXTURE, f 65;
#X text 34 25 (c) Antoine Rousseau 2017;
#X text 524 115 to the glsl uniform VAR \, which must be a sampler2D
or sampler2DRect.;
#X connect 0 0 14 0;
#X connect 1 0 46 0;
#X connect 2 0 1 0;
#X connect 3 0 14 0;
#X connect 4 0 3 0;
#X connect 5 0 8 0;
#X connect 8 0 10 0;
#X connect 8 1 9 0;
#X connect 8 2 11 0;
#X connect 10 0 46 0;
#X connect 12 0 14 0;
#X connect 13 0 4 0;
#X connect 14 0 46 0;
#X connect 15 0 46 0;
#X connect 16 0 26 0;
#X connect 17 0 27 0;
#X connect 18 0 19 0;
#X connect 19 0 15 0;
#X connect 20 0 46 0;
#X connect 21 0 28 0;
#X connect 22 0 31 0;
#X connect 23 0 29 0;
#X connect 24 0 30 0;
#X connect 25 0 15 0;
#X connect 26 0 15 0;
#X connect 27 0 15 0;
#X connect 28 0 15 0;
#X connect 29 0 15 0;
#X connect 30 0 15 0;
#X connect 31 0 15 0;
#X connect 32 0 39 0;
#X connect 33 0 15 0;
#X connect 34 0 35 0;
#X connect 35 0 15 0;
#X connect 36 0 38 0;
#X connect 37 0 15 0;
#X connect 38 0 37 0;
#X connect 39 0 33 0;
#X connect 46 0 7 0;
