#N canvas 693 381 582 613 10;
#X declare -lib pof;
#X declare -path .;
#X declare -path ../buildExternal/bin;
#X obj 187 15 pof_declare;
#X obj -24 3 cnv 15 200 20 empty empty empty 20 12 0 14 -204786 -66577
0;
#X text -22 2 Pof : Pd OpenFrameworks externals;
#X obj -24 25 cnv 15 200 20 empty empty empty 20 12 0 14 -262130 -66577
0;
#X text 5 24 (c) Antoine Rousseau 2014;
#X obj -23 56 cnv 15 180 20 empty empty empty 20 12 0 14 -261682 -66577
0;
#X obj -4 374 cnv 15 200 30 empty empty empty 20 12 0 14 -261682 -66577
0;
#X obj 1 82 pofhead;
#X msg 38 130 text Hello Pof !;
#X obj 1 381 poftext font1;
#X obj 38 104 loadbang;
#X text -18 55 poftext : draw a text.;
#X msg 57 179 set font1;
#X msg 57 200 set font2;
#X msg 70 301 anchor \$1 \$2;
#X obj 1 568 pofcolor 1 0 0 1;
#X text 265 90 Inlet 1 : set FONTNAME;
#X text 325 104 text TEXT(...);
#X text 326 117 anchor X Y;
#X obj 73 240 hsl 40 15 -1 1 0 0 empty empty empty -2 -8 0 10 -262144
-1 -1 0 1;
#X obj 272 30 poffont font2 font/FreeMonoBold.ttf 20;
#X msg 47 152 text Pd Openframeworks Externals;
#X obj 272 8 poffont font1 font/vera.ttf 20;
#X obj 272 397 route size;
#X floatatom 272 441 5 0 0 0 - - -;
#X floatatom 329 441 5 0 0 0 - - -;
#X text 165 56 Arguments : fontname [anchorX anchorY [spaceSize letterSpacing]]
;
#X text 326 131 spacing spaceSize letterSpacing;
#X msg 180 288 spacing \$1 \$2;
#X obj 198 245 t b f;
#X obj 183 199 hsl 40 15 0 1 0 0 empty empty spaceSize -10 -8 0 10
-262144 -1 -1 0 1;
#X obj 251 197 hsl 40 15 0 1 0 0 empty empty letterSpacing -2 -8 0
10 -262144 -1 -1 0 1;
#X obj 131 238 hsl 40 15 -1 1 0 0 empty empty empty -2 -8 0 10 -262144
-1 -1 0 1;
#N canvas 272 568 450 351 multiline 0;
#N canvas 195 435 457 415 append_newline 0;
#X obj 141 153 list append;
#X obj 216 153 makefilename %c;
#X obj 243 132 loadbang;
#X msg 216 131 10;
#X obj 141 74 inlet;
#X obj 141 174 outlet;
#X obj 205 52 list append;
#X connect 0 0 5 0;
#X connect 1 0 0 1;
#X connect 2 0 3 0;
#X connect 3 0 1 0;
#X connect 4 0 0 0;
#X restore 57 33 pd append_newline;
#N canvas 389 359 450 300 append_newline 0;
#X obj 141 153 list append;
#X obj 216 153 makefilename %c;
#X obj 243 132 loadbang;
#X msg 216 131 10;
#X obj 141 134 inlet;
#X obj 141 174 outlet;
#X connect 0 0 5 0;
#X connect 1 0 0 1;
#X connect 2 0 3 0;
#X connect 3 0 1 0;
#X connect 4 0 0 0;
#X restore 57 80 pd append_newline;
#X obj 57 132 list prepend text;
#X obj 57 155 list trim;
#X obj 57 178 outlet;
#X obj 57 -27 inlet;
#X msg 57 6 Hello ! This is the first line.;
#X obj 57 55 list append And that is the second one.;
#X obj 57 105 list append I think it's enough now \, we can get it.
;
#X connect 0 0 7 0;
#X connect 1 0 8 0;
#X connect 2 0 3 0;
#X connect 3 0 4 0;
#X connect 5 0 6 0;
#X connect 6 0 0 0;
#X connect 7 0 1 0;
#X connect 8 0 2 0;
#X restore 287 347 pd multiline;
#X obj 287 326 bng 15 250 50 0 empty empty empty 17 7 0 10 -262144
-1 -1;
#X floatatom 70 260 5 0 0 0 - - -;
#X obj 217 324 bng 15 250 50 0 empty empty empty 17 7 0 10 -262144
-1 -1;
#N canvas 723 521 437 192 bigLine 0;
#X obj 57 90 outlet;
#X obj 57 -27 inlet;
#X msg 57 6 text Hello ! This is quite a long line to test automatic
wrapping. You can change the width of the text bloc by sending a "width"
command to the first inlet of [poftext]. You can also change the space
between lines with "lineheight" command.;
#X connect 1 0 2 0;
#X connect 2 0 0 0;
#X restore 217 345 pd bigLine;
#X msg 339 262 width \$1;
#X floatatom 339 241 5 0 0 0 - - -;
#X msg 339 218 400;
#X msg 374 219 140;
#X msg 409 232 100;
#X msg 339 305 lineheight \$1;
#X floatatom 339 284 5 0 0 0 - - -;
#X obj 20 540 pofrect 10 10;
#X obj 40 474 pofrect 10 10;
#X floatatom 254 261 5 0 0 0 - - -;
#X obj 1 412 t a a a;
#X obj 1 589 pofcirc 10;
#X obj 40 433 pofcolor 1 1 1 0.2;
#X obj 20 495 pofcolor 0 1 0 0.1;
#X obj 272 419 unpack f f;
#X obj 70 280 pack f f;
#X obj 128 280 t b f;
#X floatatom 128 258 5 0 0 0 - - -;
#X msg 111 219 0;
#X obj 180 266 pack 1 1;
#X floatatom 180 220 5 0 0 0 - - -;
#X floatatom 248 218 5 0 0 0 - - -;
#X obj 398 262 s \$0-desiredWidth;
#X obj 272 487 s \$0-measuredWidth;
#X obj 329 463 s \$0-measuredHeight;
#X obj 57 520 r \$0-measuredWidth;
#X obj 107 541 r \$0-measuredHeight;
#X obj 128 474 r \$0-measuredHeight;
#X text 66 588 (anchor);
#X obj 77 453 r \$0-desiredWidth;
#X msg 376 351 text e€$£;
#X obj 264 566 poffont font3 font/Quicksand-Bold.ttf 20;
#X msg 262 538 set font3;
#X obj 339 195 loadbang;
#X connect 7 0 9 0;
#X connect 8 0 9 0;
#X connect 9 0 48 0;
#X connect 9 1 23 0;
#X connect 10 0 8 0;
#X connect 12 0 9 0;
#X connect 13 0 9 0;
#X connect 14 0 9 0;
#X connect 15 0 49 0;
#X connect 19 0 35 0;
#X connect 21 0 9 0;
#X connect 23 0 52 0;
#X connect 24 0 61 0;
#X connect 25 0 62 0;
#X connect 28 0 9 0;
#X connect 29 0 57 0;
#X connect 29 1 57 1;
#X connect 30 0 58 0;
#X connect 31 0 59 0;
#X connect 32 0 55 0;
#X connect 33 0 9 0;
#X connect 34 0 33 0;
#X connect 35 0 53 0;
#X connect 36 0 37 0;
#X connect 37 0 9 0;
#X connect 38 0 9 0;
#X connect 39 0 38 0;
#X connect 39 0 60 0;
#X connect 40 0 39 0;
#X connect 41 0 39 0;
#X connect 42 0 39 0;
#X connect 43 0 9 0;
#X connect 44 0 43 0;
#X connect 47 0 57 0;
#X connect 48 0 15 0;
#X connect 48 1 51 0;
#X connect 48 2 50 0;
#X connect 50 0 46 0;
#X connect 51 0 45 0;
#X connect 52 0 24 0;
#X connect 52 1 25 0;
#X connect 53 0 14 0;
#X connect 54 0 53 0;
#X connect 54 1 53 1;
#X connect 55 0 54 0;
#X connect 56 0 32 0;
#X connect 56 0 19 0;
#X connect 57 0 28 0;
#X connect 58 0 57 0;
#X connect 59 0 29 0;
#X connect 63 0 45 1;
#X connect 64 0 45 2;
#X connect 65 0 46 2;
#X connect 67 0 46 1;
#X connect 68 0 9 0;
#X connect 70 0 9 0;
#X connect 71 0 40 0;
