#N canvas 604 126 709 722 10;
#X declare -lib pof;
#X obj 26 11 cnv 15 200 20 empty empty empty 20 12 0 14 -204786 -66577
0;
#X obj 26 33 cnv 15 200 20 empty empty empty 20 12 0 14 -262130 -66577
0;
#X text 55 32 (c) Antoine Rousseau 2014;
#X obj 26 59 cnv 15 270 20 empty empty empty 20 12 0 14 -261682 -66577
0;
#X obj 44 414 cnv 15 200 30 empty empty empty 20 12 0 14 -261682 -66577
0;
#X obj 51 90 pofhead;
#X msg 88 138 text Hello Pof !;
#X obj 88 112 loadbang;
#X msg 105 219 set font1;
#X msg 105 240 set font2;
#X msg 178 325 anchor \$1 \$2;
#X obj 49 608 pofcolor 1 0 0 1;
#X text 374 123 text TEXT(...);
#X text 375 136 anchor X Y;
#X obj 181 264 hsl 40 15 -1 1 0 0 empty empty empty -2 -8 0 10 -262144
-1 -1 0 1;
#X msg 97 160 text Pd Openframeworks Externals;
#X obj 320 437 route size;
#X floatatom 320 481 5 0 0 0 - - -, f 5;
#X floatatom 354 484 5 0 0 0 - - -, f 5;
#X obj 299 260 hsl 40 15 -3 3 0 0 empty empty letterSpacing -2 -8 0
10 -262144 -1 -1 500 1;
#X obj 239 262 hsl 40 15 -1 1 0 0 empty empty empty -2 -8 0 10 -262144
-1 -1 0 1;
#N canvas 678 523 410 251 multiline 0;
#N canvas 195 435 457 415 append_newline 0;
#X obj 141 153 list append;
#X obj 216 153 makefilename %c;
#X obj 243 132 loadbang;
#X msg 216 131 10;
#X obj 141 74 inlet;
#X obj 141 174 outlet;
#X obj 205 52 list append;
#X connect 0 0 5 0;
#X connect 1 0 0 1;
#X connect 2 0 3 0;
#X connect 3 0 1 0;
#X connect 4 0 0 0;
#X restore 57 33 pd append_newline;
#N canvas 389 359 450 300 append_newline 0;
#X obj 141 153 list append;
#X obj 216 153 makefilename %c;
#X obj 243 132 loadbang;
#X msg 216 131 10;
#X obj 141 134 inlet;
#X obj 141 174 outlet;
#X connect 0 0 5 0;
#X connect 1 0 0 1;
#X connect 2 0 3 0;
#X connect 3 0 1 0;
#X connect 4 0 0 0;
#X restore 57 80 pd append_newline;
#X obj 57 132 list prepend text;
#X obj 57 155 list trim;
#X obj 57 178 outlet;
#X obj 57 -27 inlet;
#X msg 57 6 Hello ! This is the first line.;
#X obj 57 55 list append And that is the second one.;
#X obj 57 105 list append I think it's enough now \, we get it.;
#X connect 0 0 7 0;
#X connect 1 0 8 0;
#X connect 2 0 3 0;
#X connect 3 0 4 0;
#X connect 5 0 6 0;
#X connect 6 0 0 0;
#X connect 7 0 1 0;
#X connect 8 0 2 0;
#X restore 335 387 pd multiline;
#X obj 335 366 bng 15 250 50 0 empty empty empty 17 7 0 10 -262144
-1 -1;
#X floatatom 178 284 5 0 0 0 - - -, f 5;
#X obj 265 364 bng 15 250 50 0 empty empty empty 17 7 0 10 -262144
-1 -1;
#N canvas 719 531 437 192 bigLine 0;
#X obj 57 90 outlet;
#X obj 57 -27 inlet;
#X msg 57 6 text Hello ! This is quite a long line to test automatic
wrapping. You can change the width of the text bloc by sending a "width"
command to the first inlet of [poftext]. You can also change the space
between lines with "lineheight" command.;
#X connect 1 0 2 0;
#X connect 2 0 0 0;
#X restore 265 385 pd bigLine;
#X msg 387 302 width \$1;
#X floatatom 387 281 5 0 0 0 - - -, f 5;
#X msg 387 258 400;
#X msg 422 259 140;
#X msg 457 272 100;
#X msg 387 345 lineheight \$1;
#X floatatom 387 324 5 0 0 0 - - -, f 5;
#X obj 68 580 pofrect 10 10;
#X obj 88 514 pofrect 10 10;
#X obj 49 452 t a a a;
#X obj 49 629 pofcirc 10;
#X obj 88 473 pofcolor 1 1 1 0.2;
#X obj 178 304 pack f f;
#X obj 236 304 t b f;
#X floatatom 236 282 5 0 0 0 - - -, f 5;
#X msg 219 232 0;
#X floatatom 296 281 5 0 0 0 - - -, f 5;
#X obj 446 302 s \$0-desiredWidth;
#X obj 320 548 s \$0-measuredWidth;
#X obj 354 527 s \$0-measuredHeight;
#X obj 105 560 r \$0-measuredWidth;
#X obj 155 581 r \$0-measuredHeight;
#X obj 176 514 r \$0-measuredHeight;
#X text 114 628 (anchor);
#X obj 125 493 r \$0-desiredWidth;
#X msg 424 391 text e€$£;
#X msg 310 578 set font3;
#X obj 348 18 poffonts font1 font/vera.ttf 20;
#X obj 348 40 poffonts font2 font/FreeMonoBold.ttf 20;
#X text 315 98 Inlet 1 : set FONTNAME FONTSIZE;
#X obj 312 606 poffonts font3 font/Quicksand-Bold.ttf 20;
#X obj 49 420 poftexts font1 30;
#X msg 296 302 spacing \$1;
#X obj 68 535 pofcolor 0 1 0 0.1;
#X msg 110 326 size \$1;
#X floatatom 110 306 5 0 0 0 - - -, f 5;
#X floatatom 49 122 5 0 0 0 - - -, f 5;
#X obj 11 151 pofscale 1 1;
#X msg 297 227 0;
#X text 34 58 poftext : draw a text \, using ofxFontStash.;
#X text 375 150 spacing letterSpacing;
#X text 375 110 size SIZE;
#X text 215 75 Arguments : fontname fontsize[anchorX anchorY [spaceSize
letterSpacing]];
#X msg 207 185 readfile data/text.txt;
#X msg 228 204 readfile data/license.txt;
#X obj 492 362 hradio 15 1 0 10 empty empty maxLines 0 -8 0 10 -262144
-1 -1 0;
#X obj 261 479 print;
#X obj 492 435 pack f f;
#X obj 510 416 t b f;
#X obj 510 397 hradio 15 1 0 10 empty empty lineOffset 0 -8 0 10 -262144
-1 -1 0;
#X msg 492 461 cliplines \$1 \$2;
#X floatatom 567 420 5 0 0 0 - - -, f 5;
#X floatatom 392 484 5 0 0 3 numLines - -, f 5;
#X obj 320 459 unpack f f f f;
#X floatatom 448 483 5 0 0 3 totalLines - -, f 5;
#X obj 387 236 loadbang;
#X obj 237 23 declare -lib pof;
#X text 28 10 Pof: Pd OpenFrameworks externals;
#X msg 13 368 center \$1;
#X obj 13 344 tgl 15 0 empty empty empty 17 7 0 10 -262144 -1 -1 0
1;
#X connect 5 0 63 0;
#X connect 6 0 57 0;
#X connect 7 0 6 0;
#X connect 8 0 57 0;
#X connect 9 0 57 0;
#X connect 10 0 57 0;
#X connect 11 0 36 0;
#X connect 14 0 23 0;
#X connect 15 0 57 0;
#X connect 16 0 79 0;
#X connect 17 0 44 0;
#X connect 18 0 45 0;
#X connect 19 0 42 0;
#X connect 20 0 40 0;
#X connect 21 0 57 0;
#X connect 22 0 21 0;
#X connect 23 0 38 0;
#X connect 24 0 25 0;
#X connect 25 0 57 0;
#X connect 26 0 57 0;
#X connect 27 0 26 0;
#X connect 27 0 43 0;
#X connect 28 0 27 0;
#X connect 29 0 27 0;
#X connect 30 0 27 0;
#X connect 31 0 57 0;
#X connect 32 0 31 0;
#X connect 35 0 11 0;
#X connect 35 1 59 0;
#X connect 35 2 37 0;
#X connect 37 0 34 0;
#X connect 38 0 10 0;
#X connect 39 0 38 0;
#X connect 39 1 38 1;
#X connect 40 0 39 0;
#X connect 41 0 20 0;
#X connect 41 0 14 0;
#X connect 42 0 58 0;
#X connect 46 0 33 1;
#X connect 47 0 33 2;
#X connect 48 0 34 2;
#X connect 50 0 34 1;
#X connect 51 0 57 0;
#X connect 52 0 57 0;
#X connect 57 0 35 0;
#X connect 57 1 16 0;
#X connect 58 0 57 0;
#X connect 59 0 33 0;
#X connect 60 0 57 0;
#X connect 61 0 60 0;
#X connect 62 0 63 1;
#X connect 62 0 63 2;
#X connect 63 0 57 0;
#X connect 64 0 19 0;
#X connect 69 0 57 0;
#X connect 70 0 57 0;
#X connect 71 0 73 0;
#X connect 73 0 76 0;
#X connect 74 0 73 0;
#X connect 74 1 73 1;
#X connect 75 0 74 0;
#X connect 76 0 57 0;
#X connect 77 0 74 0;
#X connect 79 0 17 0;
#X connect 79 1 18 0;
#X connect 79 2 78 0;
#X connect 79 3 80 0;
#X connect 81 0 28 0;
#X connect 84 0 57 0;
#X connect 85 0 84 0;
