#N canvas 673 294 400 394 10;
#X declare -lib pof;
#X declare -path .;
#X declare -path ../buildExternal/bin;
#X obj 187 15 pof_declare;
#X obj -24 3 cnv 15 200 20 empty empty empty 20 12 0 14 -204786 -66577
0;
#X text -22 2 Pof : Pd OpenFrameworks externals;
#X obj -24 25 cnv 15 200 20 empty empty empty 20 12 0 14 -262130 -66577
0;
#X text 5 24 (c) Antoine Rousseau 2014;
#X obj -24 56 cnv 15 200 20 empty empty empty 20 12 0 14 -261682 -66577
0;
#X obj -19 260 cnv 15 180 30 empty empty empty 20 12 0 14 -261682 -66577
0;
#X text -18 57 poftextbox : get text from user.;
#X obj -13 301 print;
#X msg 26 120 show;
#X obj -13 267 poftextbox Enter some text;
#X msg 26 187 question What's your name ? \, show Antoine;
#X msg 26 215 question Where do you live ? \, show Lille;
#X msg 26 153 question How old are you ?;
#X text -9 327 warning : crashes TclTk when opened \, on linux and
with pd-extened 43.4 at least...;
#X connect 9 0 10 0;
#X connect 10 0 8 0;
#X connect 11 0 10 0;
#X connect 12 0 10 0;
#X connect 13 0 10 0;
