#N canvas 702 86 637 690 10;
#X declare -lib pof;
#X obj 5 4 cnv 15 200 20 empty empty empty 20 12 0 14 -204786 -66577
0;
#X obj 5 26 cnv 15 200 20 empty empty empty 20 12 0 14 -262130 -66577
0;
#X text 34 25 (c) Antoine Rousseau 2014;
#X obj 5 56 cnv 15 240 30 empty empty empty 20 12 0 14 -261682 -66577
0;
#X obj 21 518 cnv 15 180 30 empty empty empty 20 12 0 14 -261682 -66577
0;
#X obj 37 91 pofhead;
#X text 7 3 Pof: Pd OpenFrameworks externals;
#X obj 216 16 declare -lib pof;
#X msg 79 361 play \$1;
#X obj 79 341 tgl 15 0 empty empty empty 17 7 0 10 -262144 -1 -1 0
1;
#X msg 66 292 symbol img/fingers.mov;
#X msg 217 414 set film1;
#X obj 37 521 poftexture film1;
#X msg 66 313 load \$1 \, play 1;
#X obj 66 269 loadbang;
#X obj 37 643 pofsphere 100 100;
#X text 214 519 Arguments : texture_name;
#X text 234 536 Inlet 1: set other_name;
#X obj 37 146 t a a a a;
#X obj 402 330 pofrect 200 10;
#X obj 402 238 t a a;
#X obj 506 287 pofcolor 1 0 0 1;
#X floatatom 506 347 5 0 0 0 - - -, f 5;
#X msg 217 462 set frameBuffer;
#X obj 37 619 pofdepthtest;
#X msg 217 436 set image1;
#X obj 203 227 pofimage logo/pOf.png 200 image1;
#X obj 203 202 poftranslate 0 -100;
#X obj 54 201 poftranslate -180 -100;
#X obj 402 194 poftranslate 180 -100;
#X obj 529 355 pofrect 200 100;
#X text 6 56 poffilm : get a texture from a producer (image \, film
\, framebuffer...), f 39;
#X obj 37 474 poftranslate 0 60;
#X obj 448 24 loadbang;
#X obj 448 44 tgl 15 0 empty empty empty 17 7 0 10 -262144 -1 -1 1
1;
#X obj 448 64 metro 50;
#X obj 448 86 i;
#X obj 448 108 + 1;
#X obj 402 279 poftranslate;
#X obj 448 152 - 50;
#X obj 448 130 mod 100;
#X obj 220 288 i;
#X obj 220 310 + 1;
#X obj 220 332 mod 360;
#X obj 37 566 pofrotate y;
#X obj 37 590 pofrotate x;
#X obj 422 429 pofimage logo/pOf.png 200;
#X obj 402 306 pofcolor 1 1 0 0.7;
#X obj 54 388 poffilm 150 film1;
#X obj 402 217 poffbo 150 100 frameBuffer;
#X connect 5 0 18 0;
#X connect 8 0 48 0;
#X connect 9 0 8 0;
#X connect 10 0 13 0;
#X connect 11 0 12 0;
#X connect 12 0 44 0;
#X connect 13 0 48 0;
#X connect 14 0 10 0;
#X connect 18 0 32 0;
#X connect 18 1 28 0;
#X connect 18 2 27 0;
#X connect 18 3 29 0;
#X connect 20 0 38 0;
#X connect 20 1 21 0;
#X connect 21 0 46 0;
#X connect 22 0 19 2;
#X connect 23 0 12 0;
#X connect 24 0 15 0;
#X connect 25 0 12 0;
#X connect 27 0 26 0;
#X connect 28 0 48 0;
#X connect 29 0 49 0;
#X connect 32 0 12 0;
#X connect 33 0 34 0;
#X connect 34 0 35 0;
#X connect 35 0 36 0;
#X connect 35 0 41 0;
#X connect 36 0 37 0;
#X connect 37 0 40 0;
#X connect 38 0 47 0;
#X connect 39 0 38 2;
#X connect 40 0 36 1;
#X connect 40 0 39 0;
#X connect 41 0 42 0;
#X connect 42 0 43 0;
#X connect 43 0 41 1;
#X connect 43 0 44 1;
#X connect 43 0 45 1;
#X connect 44 0 45 0;
#X connect 45 0 24 0;
#X connect 47 0 19 0;
#X connect 49 0 20 0;
