#N canvas 525 230 637 607 10;
#X declare -path .;
#X declare -path ../buildExternal/bin;
#X obj 216 18 pof_declare;
#X obj 5 6 cnv 15 200 20 empty empty empty 20 12 0 14 -204786 -66577
0;
#X obj 5 28 cnv 15 200 20 empty empty empty 20 12 0 14 -262130 -66577
0;
#X text 34 27 (c) Antoine Rousseau 2014;
#X obj 5 59 cnv 15 200 20 empty empty empty 20 12 0 14 -261682 -66577
0;
#X obj 37 398 cnv 15 120 30 empty empty empty 20 12 0 14 -261682 -66577
0;
#X obj 43 83 pofhead;
#X text 178 386 Inlet 2: width;
#X floatatom 89 376 5 0 0 0 - - -, f 5;
#X floatatom 136 375 5 0 0 0 - - -, f 5;
#X text 178 401 Inlet 3: height;
#X text 11 59 poftouch : send touch events.;
#X obj 43 405 poftouch 200 200;
#X text 171 353 Arguments : initial width height [dont_capture multi]
;
#X msg 83 214 dont_capture \$1;
#X obj 85 248 tgl 15 0 empty empty empty 17 7 0 10 -262144 -1 -1 0
1;
#X msg 85 266 multi \$1;
#X obj 81 146 tgl 15 0 empty empty empty 17 7 0 10 -262144 -1 -1 0
1;
#X msg 81 165 draw \$1;
#X obj 27 503 unpack f f f;
#X floatatom 27 532 5 0 0 3 x - -, f 5;
#X floatatom 61 532 5 0 0 3 y - -, f 5;
#X floatatom 96 532 5 0 0 3 touch_id - -, f 5;
#X obj 213 503 unpack f f f;
#X floatatom 213 532 5 0 0 3 x - -, f 5;
#X floatatom 247 532 5 0 0 3 y - -, f 5;
#X floatatom 282 532 5 0 0 3 touch_id - -, f 5;
#X obj 353 504 unpack f f f;
#X floatatom 353 533 5 0 0 3 x - -, f 5;
#X floatatom 387 533 5 0 0 3 y - -, f 5;
#X floatatom 422 533 5 0 0 3 touch_id - -, f 5;
#X obj 450 502 bng 15 250 50 0 empty empty cancel 17 7 0 10 -262144
-1 -1;
#X text 139 80 Touch events travel from the bottom to the top of the
tree (while drawing goes from the top to the bottom).;
#X text 130 164 draw : draw a rectangle of the same dimensions.;
#X text 142 249 multi : when touchdown has been detected \, continue
to listen to other touch id events (only useful for multitouch apps).
;
#X text 178 420 Outlet 2: down|move|up x y id;
#X text 238 434 cancel 0;
#X text 183 190 dont_capture : let the touch events climb the tree
even after touchdown has been detected.;
#X text 140 106 Events emitted by a touch id (=finger) are captured
by a poftouch from a touchdown inside of it \, until the touchup event
of this touch id.;
#X obj 427 452 poftouchable;
#X text 425 435 See also :;
#X msg 93 299 shape rect;
#X msg 93 324 shape ellipse;
#X msg 136 490 1;
#X msg 164 490 0;
#X obj 136 517 tgl 30 0 empty empty empty 17 7 0 10 -262144 -1 -1 0
1;
#X obj 83 195 hradio 15 1 0 3 empty empty empty 0 -8 0 10 -262144 -1
-1 2;
#X text 184 221 if dont_capture=2 \, dynamically test for enter/leave
events.;
#X obj 136 457 route down move up cancel enter leave;
#X msg 508 499 1;
#X msg 536 499 0;
#X obj 508 526 tgl 30 0 empty empty empty 17 7 0 10 -262144 -1 -1 0
1;
#X text 178 370 Inlet 1: dont_capture(0/1/2) \, multi(0/1) \, draw(0/1)
;
#X text 7 5 Pof: Pd OpenFrameworks externals;
#X connect 6 0 12 0;
#X connect 8 0 12 1;
#X connect 9 0 12 2;
#X connect 12 1 48 0;
#X connect 14 0 12 0;
#X connect 15 0 16 0;
#X connect 16 0 12 0;
#X connect 17 0 18 0;
#X connect 18 0 12 0;
#X connect 19 0 20 0;
#X connect 19 1 21 0;
#X connect 19 2 22 0;
#X connect 23 0 24 0;
#X connect 23 1 25 0;
#X connect 23 2 26 0;
#X connect 27 0 28 0;
#X connect 27 1 29 0;
#X connect 27 2 30 0;
#X connect 41 0 12 0;
#X connect 42 0 12 0;
#X connect 43 0 45 0;
#X connect 44 0 45 0;
#X connect 46 0 14 0;
#X connect 48 0 19 0;
#X connect 48 0 43 0;
#X connect 48 1 23 0;
#X connect 48 2 27 0;
#X connect 48 2 44 0;
#X connect 48 3 31 0;
#X connect 48 4 49 0;
#X connect 48 5 50 0;
#X connect 49 0 51 0;
#X connect 50 0 51 0;
