#N canvas 606 92 472 438 10;
#X declare -lib pof;
#X declare -path .;
#X declare -path ../buildExternal/bin;
#X obj 187 15 pof_declare;
#X obj -24 3 cnv 15 200 20 empty empty empty 20 12 0 14 -204786 -66577
0;
#X text -22 2 Pof : Pd OpenFrameworks externals;
#X obj -24 25 cnv 15 200 20 empty empty empty 20 12 0 14 -262130 -66577
0;
#X text 5 24 (c) Antoine Rousseau 2014;
#X obj -23 56 cnv 15 220 20 empty empty empty 20 12 0 14 -261682 -66577
0;
#X obj -1 195 cnv 15 120 30 empty empty empty 20 12 0 14 -261682 -66577
0;
#X obj 14 80 pofhead;
#X obj 14 278 poftouch 200 200;
#X obj 156 323 bng 15 250 50 0 empty empty cancel 17 7 0 10 -262144
-258113 -1;
#X text -18 56 poftouchable : disable touch events.;
#X msg 30 250 draw 1;
#X obj 30 228 loadbang;
#X obj 41 164 tgl 15 0 empty empty empty 17 7 0 10 -262144 -1 -1 1
1;
#X obj 14 203 poftouchable 1;
#X text 127 192 Argument : initial state.;
#X text 127 205 Inlet 1 : set state : 1=enable 0=disable;
#X obj 41 113 tgl 15 0 empty empty empty 17 7 0 10 -262144 -1 -1 1
1;
#X obj 107 299 route move cancel;
#X obj 48 333 unpack f f;
#X obj 14 358 poftranslate;
#X obj 14 381 pofcolor 1 0 0 1;
#X obj 14 402 pofrect 15 15;
#X obj -20 204 tgl 15 0 empty empty empty 17 7 0 10 -262144 -1 -1 1
1;
#X obj 41 132 metro 2000;
#X text 66 79 poftouchable enables or disables touch events for following
tree.;
#X connect 7 0 14 0;
#X connect 8 0 20 0;
#X connect 8 1 18 0;
#X connect 11 0 8 0;
#X connect 12 0 11 0;
#X connect 13 0 14 0;
#X connect 13 0 23 0;
#X connect 14 0 8 0;
#X connect 17 0 24 0;
#X connect 18 0 19 0;
#X connect 18 1 9 0;
#X connect 19 0 20 1;
#X connect 19 1 20 2;
#X connect 20 0 21 0;
#X connect 21 0 22 0;
#X connect 23 0 21 1;
#X connect 24 0 13 0;
