#N canvas 199 550 377 265 10;
#X declare -lib pof;
#X obj 14 12 cnv 15 200 20 empty empty empty 20 12 0 14 -204786 -66577
0;
#X obj 14 34 cnv 15 200 20 empty empty empty 20 12 0 14 -262130 -66577
0;
#X text 43 33 (c) Antoine Rousseau 2014;
#X obj 14 65 cnv 15 200 20 empty empty empty 20 12 0 14 -261682 -66577
0;
#X text 20 65 pofutil : various utilities.;
#N canvas 664 159 670 599 file_utils 0;
#X obj 248 477 cnv 15 45 15 empty empty empty 20 12 0 14 -257985 -66577
0;
#X obj 290 159 cnv 15 45 20 empty empty empty 20 12 0 14 -257985 -66577
0;
#X obj 271 205 cnv 15 45 20 empty empty empty 20 12 0 14 -257985 -66577
0;
#X obj 282 231 cnv 15 45 20 empty empty empty 20 12 0 14 -257985 -66577
0;
#X obj 399 278 cnv 15 45 20 empty empty empty 20 12 0 14 -257985 -66577
0;
#X obj 405 304 cnv 15 45 20 empty empty empty 20 12 0 14 -257985 -66577
0;
#X obj 313 356 cnv 15 45 20 empty empty empty 20 12 0 14 -257985 -66577
0;
#X obj 328 428 cnv 15 45 20 empty empty empty 20 12 0 14 -257985 -66577
0;
#X msg 22 14 getdir;
#X obj 22 511 pofutil;
#X msg 56 165 rmfile /tmp/file_to_delete;
#X msg 45 73 listdir /;
#X msg 53 104 exists /;
#X text 112 73 list directory;
#X obj 22 552 print;
#X msg 56 209 mkdir /tmp/test_dir;
#X msg 57 236 rmdir /tmp/test_dir;
#X msg 33 45 getdatapath;
#X text 108 43 get openFrameworks app's datapath;
#X text 64 11 get path of current patch directory;
#X msg 56 280 renamedir /tmp/test_dir /tmp/test_dir-renamed;
#X msg 57 309 renamedir /tmp/test_dir-renamed /tmp/test_dir;
#X text 64 552 async out : [command] done/error [error_code];
#X text 182 208 make directory (async);
#X text 182 234 remove directory (async);
#X text 334 280 rename dir (async);
#X text 334 307 rename back (async);
#X text 219 163 remove file (async);
#X msg 64 429 copyfile /tmp/test1 /tmp/test3, f 32;
#X msg 64 449 copyfile /tmp/test1 /tmp/test3 1;
#X msg 64 359 movefile /tmp/test1 /tmp/test2;
#X text 269 430 copy file (async);
#X text 256 358 move file (async);
#X text 174 376 CAUTION: movefile unconditionally OVERLOADS the destination
file (seems to be OF bug), f 43;
#X text 269 451 optional 3rd arg = 'overload' (defaults false), f
29;
#X msg 65 479 sync 1;
#X msg 121 479 sync 0;
#X text 166 479 sync 1: force "async" operations to run in Pd thread
\, i.e. the patch will hang until operation is finished., f 53;
#X text 192 522 Use:;
#X obj 223 523 pofutil sync;
#X text 166 504 sync 0: return to default asynchronous (=threaded)
behavior., f 61;
#X text 305 523 to default "sync=1";
#X msg 66 127 exists pofutil-help.pd;
#X msg 381 25 getdir;
#X obj 381 44 pofutil;
#X msg 381 63 exists \$1/pofutil-help.pd;
#X obj 381 82 pofutil;
#X floatatom 475 171 7 0 0 3 days_from_1970 - -, f 7;
#X obj 381 103 unpack s s f f f, f 32;
#X symbolatom 381 124 7 0 0 0 - - -, f 7;
#X symbolatom 428 124 7 0 0 3 file/dir - -, f 7;
#X floatatom 522 156 7 0 0 3 seconds_in_day - -, f 7;
#X floatatom 570 124 7 0 0 3 size_in_bytes - -, f 7;
#X text 360 156 last modified date:;
#X text 107 104 test if file exists/isDirectory/isFile \, see:;
#X obj 381 6 loadbang;
#X connect 8 0 9 0;
#X connect 9 0 14 0;
#X connect 10 0 9 0;
#X connect 11 0 9 0;
#X connect 12 0 9 0;
#X connect 15 0 9 0;
#X connect 16 0 9 0;
#X connect 17 0 9 0;
#X connect 20 0 9 0;
#X connect 21 0 9 0;
#X connect 28 0 9 0;
#X connect 29 0 9 0;
#X connect 30 0 9 0;
#X connect 35 0 9 0;
#X connect 36 0 9 0;
#X connect 42 0 9 0;
#X connect 43 0 44 0;
#X connect 44 0 45 0;
#X connect 45 0 46 0;
#X connect 46 0 48 0;
#X connect 48 0 49 0;
#X connect 48 1 50 0;
#X connect 48 2 47 0;
#X connect 48 3 51 0;
#X connect 48 4 52 0;
#X connect 55 0 43 0;
#X restore 28 103 pd file_utils;
#N canvas 599 515 663 360 string_utils 0;
#X obj 23 186 pofutil;
#X obj 23 214 print;
#X msg 23 29 dirbaseext /tmp/path/test.txt;
#X text 208 28 decompose path string;
#X msg 61 100 stringfind HelloWorld oW;
#X msg 51 79 stringfind HelloWorld Wo;
#X msg 43 58 stringfind HelloWorld A;
#X text 205 76 find substring position (returns -1 if substring not
found);
#X msg 68 150 setstring teststring bla;
#X obj 544 148 pofimage;
#X text 599 147 );
#X text 221 148 define an alias string (see download_file \, unzip
and;
#X connect 0 0 1 0;
#X connect 2 0 0 0;
#X connect 4 0 0 0;
#X connect 5 0 0 0;
#X connect 6 0 0 0;
#X connect 8 0 0 0;
#X restore 29 130 pd string_utils;
#N canvas 583 453 435 253 others 0;
#X msg 50 70 time;
#X msg 50 90 time %d-%m-%y at %H-%M-%S;
#X msg 51 112 time %W-%d-%B-%Y at %Hh-%Mmn-%Ss;
#X obj 20 152 pofutil;
#X msg 48 33 dollarg;
#X text 98 30 get arguments passed to current abstraction.;
#X text 81 68 get timestamp (see ofGetTimestampString);
#X obj 20 175 print;
#X connect 0 0 3 0;
#X connect 1 0 3 0;
#X connect 2 0 3 0;
#X connect 3 0 7 0;
#X connect 4 0 3 0;
#X restore 28 211 pd others;
#N canvas 458 657 586 230 download_file 0;
#X obj 20 150 pofutil;
#X obj 20 181 print;
#X msg 20 27 download http://example.org /tmp/test;
#X msg 34 51 abort_download;
#X obj 298 159 pofutil;
#X obj 298 113 loadbang;
#X msg 298 135 setstring w3url http://www.w3schools.com/xml/;
#X msg 46 113 download note.xml /tmp/file.test @w3url;
#X text 40 92 You can append an alias string to prefix your source
URL :;
#X connect 0 0 1 0;
#X connect 2 0 0 0;
#X connect 3 0 0 0;
#X connect 5 0 6 0;
#X connect 6 0 4 0;
#X connect 7 0 0 0;
#X restore 29 157 pd download_file;
#N canvas 705 597 344 233 unzip 0;
#X obj 37 135 pofutil;
#X msg 37 26 unzip file to_path [password];
#X text 96 43 password can be an @alias string.;
#X obj 37 164 print;
#X msg 63 84 unzip data/zipped_dir.zip /tmp pass;
#X text 36 184 error code : 0 = file not found;
#X text 114 199 1 = file format error;
#X connect 0 0 3 0;
#X connect 1 0 0 0;
#X connect 4 0 0 0;
#X restore 29 184 pd unzip;
#X text 16 11 Pof: Pd OpenFrameworks externals;
#X obj 225 24 declare -lib pof;
