#N canvas 574 84 563 758 10;
#X declare -lib pof;
#X obj 19 15 cnv 15 200 20 empty empty empty 20 12 0 14 -204786 -66577
0;
#X obj 19 37 cnv 15 200 20 empty empty empty 20 12 0 14 -262130 -66577
0;
#X text 48 36 (c) Antoine Rousseau 2014;
#X obj 19 68 cnv 15 200 20 empty empty empty 20 12 0 14 -261682 -66577
0;
#X text 28 69 pofwin : main window settings.;
#X obj 17 643 cnv 15 80 30 empty empty empty 20 12 0 14 -261682 -66577
0;
#X msg 96 245 build;
#X obj 27 651 pofwin;
#X msg 111 336 framerate \$1;
#X msg 57 169 window \$1 600 0;
#X obj 60 149 hsl 128 15 0 500 0 0 empty empty empty -2 -8 0 10 -262144
-1 -1 0 1;
#X msg 111 310 8;
#X msg 141 311 25;
#X msg 172 311 60;
#X text 191 335 Set framerate.;
#X obj 27 679 route window;
#X obj 27 701 unpack f f;
#X floatatom 27 726 5 0 0 0 - - -;
#X floatatom 84 726 5 0 0 0 - - -;
#X text 104 678 Get actual window size.;
#X msg 136 458 background 0 0 0;
#X msg 137 479 background 40 80 120;
#X text 245 460 Set background color.;
#X text 268 474 (R \, G \, B [0:255]);
#X obj 140 518 bng 15 250 50 0 empty empty empty 17 7 0 10 -262144
-1 -1;
#X text 161 516 bang : force send window size;
#X text 136 228 Manually rebuild drawing tree (to be called when objects
have been connected or disconnected). Rebuild is done automatically
when a pof object has been created or destroyed (but not when a pof
object is connected/disconnected...).;
#X msg 127 412 normalizedtextcoords \$1;
#X obj 127 390 tgl 15 0 empty empty empty 17 7 0 10 -262144 -1 -1 0
1;
#X text 149 382 Enable texture normalized (0-1) coordinates \, needed
to texture 3d objects.;
#X obj 230 27 declare -lib pof;
#X text 21 14 Pof: Pd OpenFrameworks externals;
#X text 156 168 Set window size : window WIDHT HEIGHT [FULLSCREEN]
;
#X msg 142 575 pos \$1 100;
#X obj 145 556 hsl 128 15 0 1500 0 0 empty empty empty -2 -8 0 10 -262144
-1 -1 0 1;
#N canvas 4 75 450 300 testfullscreen 0;
#X obj 232 103 bng 15 250 50 0 empty empty empty 17 7 0 10 -260097
-1 -1;
#X obj 232 150 t b a;
#X obj 232 174 del 2000;
#X msg 232 130 window 400 400 1;
#X obj 232 218 t a;
#X msg 232 196 window 400 400 0;
#X obj 232 246 outlet;
#X connect 0 0 3 0;
#X connect 1 0 2 0;
#X connect 1 1 4 0;
#X connect 2 0 5 0;
#X connect 3 0 1 0;
#X connect 4 0 6 0;
#X connect 5 0 4 0;
#X coords 0 -1 1 1 150 20 1 100 100;
#X restore 65 192 pd testfullscreen;
#X text 209 574 Set window position;
#X msg 142 624 cursor \$1;
#X obj 142 605 tgl 15 0 empty empty empty 17 7 0 10 -262144 -1 -1 0
1;
#X msg 28 103 open;
#X text 60 102 first open the pof window;
#X msg 44 128 open noborder;
#X text 135 127 caution!;
#X connect 6 0 7 0;
#X connect 7 0 15 0;
#X connect 8 0 7 0;
#X connect 9 0 7 0;
#X connect 10 0 9 0;
#X connect 11 0 8 0;
#X connect 12 0 8 0;
#X connect 13 0 8 0;
#X connect 15 0 16 0;
#X connect 16 0 17 0;
#X connect 16 1 18 0;
#X connect 20 0 7 0;
#X connect 21 0 7 0;
#X connect 24 0 7 0;
#X connect 27 0 7 0;
#X connect 28 0 27 0;
#X connect 33 0 7 0;
#X connect 34 0 33 0;
#X connect 35 0 7 0;
#X connect 37 0 7 0;
#X connect 38 0 37 0;
#X connect 39 0 7 0;
#X connect 41 0 7 0;
