#N canvas 645 217 323 286 10;
#X declare -lib pof;
#X declare -path .;
#X declare -path ../buildExternal/bin;
#X obj 187 15 pof_declare;
#X obj -24 3 cnv 15 200 20 empty empty empty 20 12 0 14 -204786 -66577
0;
#X text -22 2 Pof : Pd OpenFrameworks externals;
#X obj -24 25 cnv 15 200 20 empty empty empty 20 12 0 14 -262130 -66577
0;
#X text 5 24 (c) Antoine Rousseau 2014;
#X obj -24 56 cnv 15 200 20 empty empty empty 20 12 0 14 -261682 -66577
0;
#X obj -12 96 cnv 15 100 30 empty empty empty 20 12 0 14 -261682 -66577
0;
#X text -19 56 pofxml : xml file utilities.;
#X obj -6 104 pofxml testxml;
#N canvas 19 205 557 399 save/load 0;
#X msg 61 71 load data/food.xml;
#X msg 51 34 load data/simple.xml;
#X obj 51 295 pofxml testxml;
#X msg 143 224 print;
#X obj 240 619 pofutil;
#X msg 240 596 setstring urlbase http://www.w3schools.com/xml;
#X obj 240 571 loadbang;
#X msg 109 167 save /tmp/test.xml;
#X obj 51 333 print save/load;
#X msg 69 104 load @[alias]/foo;
#X text 184 114 "save" currently doesn't...;
#X text 184 102 pofxml "load" handles alias string prefixing.;
#X text 229 60 note : save/load aren't multithreaded.;
#X text 182 222 "print" currently trunkates file to the first 1000
chars (MAXPDSTRING).;
#X connect 0 0 2 0;
#X connect 1 0 2 0;
#X connect 2 0 8 0;
#X connect 3 0 2 0;
#X connect 5 0 4 0;
#X connect 6 0 5 0;
#X connect 7 0 2 0;
#X connect 9 0 2 0;
#X restore -3 143 pd save/load;
#N canvas 343 337 493 609 parse 0;
#X obj 36 418 pofxml testxml;
#X obj 139 451 print parse;
#X msg 36 19 load data/food.xml;
#X obj 88 55 hradio 15 1 0 5 empty empty empty 0 -8 0 10 -262144 -1
-1 0;
#X msg 88 75 get food[\$1]/name;
#X obj 88 99 hradio 15 1 0 5 empty empty empty 0 -8 0 10 -262144 -1
-1 0;
#X msg 88 118 get food[\$1]/description;
#X msg 94 371 getnum food[2];
#X msg 93 348 getnum /;
#X obj 90 172 hradio 15 1 0 5 empty empty empty 0 -8 0 10 -262144 -1
-1 0;
#X msg 90 191 gets food[\$1]/description;
#X obj 36 546 list length;
#X floatatom 36 569 5 0 0 0 - - -;
#X text 252 355 get the number of elements;
#X text 255 170 get elements as a symbol;
#X text 257 78 get elements as a list;
#X obj 36 466 route get gets;
#X symbolatom 76 509 0 0 0 0 - - -;
#X obj 76 488 symbol;
#X msg 91 293 gets food[@id=belwaf]/name;
#X text 255 291 select by attribute;
#X obj 90 232 hradio 15 1 0 5 empty empty empty 0 -8 0 10 -262144 -1
-1 0;
#X text 255 236 get attribute;
#X msg 90 251 gets food[\$1][@id];
#X connect 0 0 1 0;
#X connect 0 0 16 0;
#X connect 2 0 0 0;
#X connect 3 0 4 0;
#X connect 4 0 0 0;
#X connect 5 0 6 0;
#X connect 6 0 0 0;
#X connect 7 0 0 0;
#X connect 8 0 0 0;
#X connect 9 0 10 0;
#X connect 10 0 0 0;
#X connect 11 0 12 0;
#X connect 16 0 11 0;
#X connect 16 1 18 0;
#X connect 18 0 17 0;
#X connect 19 0 0 0;
#X connect 21 0 23 0;
#X connect 23 0 0 0;
#X restore -2 171 pd parse;
#N canvas 467 142 627 484 edit 0;
#X msg 35 22 print;
#X obj 35 443 pofxml testxml;
#X msg 59 58 clear;
#X msg 69 81 clear MyRootName;
#X msg 81 121 add / object;
#X msg 95 206 set /object type Table;
#X msg 87 147 add /object type Chair;
#X msg 95 232 set /object type Glass;
#X text 253 157 add defined child;
#X text 251 220 (re)define child;
#X text 252 116 add empty child;
#X msg 97 270 remove /object/type;
#X msg 90 171 add /object color Blue;
#X text 254 268 remove child;
#X msg 101 317 setattr / object id 1;
#X msg 101 338 setattr / object id obj1;
#X msg 102 377 removeattr /object;
#X text 256 322 set attribute (caution! split all nodes for this command...)
;
#X text 256 377 remove attribute;
#X connect 0 0 1 0;
#X connect 2 0 1 0;
#X connect 3 0 1 0;
#X connect 4 0 1 0;
#X connect 5 0 1 0;
#X connect 6 0 1 0;
#X connect 7 0 1 0;
#X connect 11 0 1 0;
#X connect 12 0 1 0;
#X connect 14 0 1 0;
#X connect 15 0 1 0;
#X connect 16 0 1 0;
#X restore -2 201 pd edit;
#N canvas 369 669 363 223 reference 0;
#X obj 53 104 pofxml testxml;
#X msg 53 16 setxml testxml2;
#X msg 61 37 setxml testxml;
#X msg 78 76 print;
#X text 154 25 switch between references;
#X obj 55 179 pofxml testxml2;
#X msg 55 158 load data/simple.xml;
#X connect 1 0 0 0;
#X connect 2 0 0 0;
#X connect 3 0 0 0;
#X connect 6 0 5 0;
#X restore -1 230 pd reference;
#X text 96 102 Argument : reference_name;
