#N canvas 853 81 716 823 10;
#X obj 283 56 adc~;
#X floatatom 195 109 5 0 0 0 - - -;
#X obj 368 306 pofcolor 0 1 0 1;
#X obj 364 92 table \$0-t 100000;
#X obj 331 150 tabwrite~ \$0-t;
#X obj 253 497 route down up;
#X obj 253 519 b;
#X obj 273 570 100000;
#X obj 273 592 / 44.1;
#X obj 273 614 del;
#X msg 318 619 1;
#X msg 273 635 0;
#X obj 318 643 f;
#X msg 489 305 compute \$1;
#X obj 233 531 bng 15 250 50 0 empty empty empty 17 7 0 10 -262144
-1 -1;
#X obj 424 249 unpack f f;
#X msg 423 227 1 0;
#X msg 453 225 0 1;
#X obj 423 205 sel 1 0;
#X obj 186 766 route down up;
#X obj 186 818 tabplay~ \$0-t;
#X obj 186 790 b;
#X msg 217 789 stop;
#X obj 179 877 dac~;
#X msg 253 891 0 \, 1 \$1;
#X obj 253 846 100000;
#X obj 253 868 / 44.1;
#X obj 405 394 line;
#X msg 303 843 0;
#X obj 349 504 pofrect 4 200;
#X obj 484 376 route down move up;
#X obj 582 404 unpack f f;
#X obj 590 498 * 100000;
#X obj 590 543 line~;
#X obj 580 694 dac~;
#X obj 589 629 tabread4~ \$0-t;
#X obj 582 471 clip 0 1;
#X obj 38 42 pofrotate 90;
#X floatatom 244 110 5 0 0 0 - - -;
#X obj 133 131 poftranslate 0 -150;
#X obj 368 330 pofscope 700 50 100000;
#X obj 368 351 poftouch 700 200;
#X obj 582 426 / 700;
#X obj 582 448 + 0.5;
#X obj 404 414 - 0.5;
#X obj 404 434 * 700;
#X floatatom 246 312 5 0 0 0 - - -;
#X floatatom 193 294 5 0 0 0 - - -;
#X floatatom 122 623 5 0 0 0 - - -;
#X floatatom 182 626 5 0 0 0 - - -;
#X obj 588 588 lop~ 10;
#X obj 589 608 lop~ 10;
#X obj 590 566 lop~ 5;
#X obj 133 242 pofscope 700 20 4000;
#X obj 38 18 r \$1;
#X obj 349 457 poftranslate -350 0;
#X msg 590 522 \$1 30;
#X msg 546 498 \$1 30;
#X obj 484 408 unpack f f;
#X obj 492 500 * 100000;
#X obj 484 475 clip 0 1;
#X obj 484 430 / 700;
#X obj 484 452 + 0.5;
#X obj 484 558 t a;
#X obj 590 658 hip~ 20;
#X obj 186 840 hip~ 20;
#X obj 283 93 hip~ 50;
#X obj 283 118 hip~ 100;
#X obj 253 917 s \$0-cursor;
#X obj 405 373 r \$0-cursor;
#X obj 484 579 s \$0-cursor;
#X obj 38 67 s \$0-head;
#X obj 69 276 r \$0-head;
#X obj 349 193 r \$0-head;
#X obj 133 111 r \$0-head;
#X obj 253 690 s \$0-rec_start;
#X obj 356 121 r \$0-rec_start;
#X obj 318 666 s \$0-scope_compute;
#X obj 489 178 r \$0-scope_compute;
#X msg 111 18 0;
#X msg 146 17 90;
#X obj 500 89 r \$0-head;
#X floatatom 566 85 5 0 0 0 - - -;
#X floatatom 615 83 5 0 0 0 - - -;
#X obj 500 141 credit;
#X obj 500 113 poftranslate 0 220;
#X obj 133 153 t a a;
#X obj 160 173 pofcolor 0.2 0.2 0.2 1;
#X obj 160 194 pofrect 700 80;
#X obj 349 255 t a a a;
#X obj 583 280 pofcolor 0.2 0.2 0.2 1;
#X obj 349 479 pofcolor 1 1 1 0.5;
#X obj 69 668 t a a;
#X obj 117 368 t a a;
#X obj 117 543 poftexts impact 36;
#X msg 124 517 text TAP TO RECORD;
#X floatatom 285 453 5 0 0 0 - - -;
#X floatatom 230 391 5 0 0 0 - - -;
#X obj 132 497 loadbang;
#X obj 56 775 loadbang;
#X obj 35 822 poftexts impact 36;
#X msg 48 795 text HOLD TO PLAY;
#X msg 534 620 clear;
#X obj 544 542 t b f;
#X msg 284 522 1;
#X msg 327 562 0.4;
#X obj 172 428 pofcolor 1 0 0 0.4;
#X obj 327 542 del 100;
#X msg 231 735 1;
#X msg 264 731 0.4;
#X obj 96 693 pofcolor 0 1 0 0.4;
#X msg 359 767 text SCRATCH !;
#X obj 583 303 pofrect 700 200;
#X obj 133 219 pofcolor 1 1 0 1;
#X msg 367 741 text;
#X obj 459 767 pofcolor 0.5 0.5 0.5 0.5;
#X msg 549 855 spacing \$1;
#X floatatom 563 819 5 0 0 0 - - -;
#X floatatom 461 870 5 0 0 0 - - -;
#X msg 447 906 size \$1;
#X obj 459 790 pofscale 3 3;
#X obj 421 849 poftexts impact 85;
#X msg 359 815 spacing -6.5;
#X obj 69 313 poftranslate 0 150;
#X obj 170 453 pofrect 345 80;
#X obj 172 474 poftouch 345 80;
#X obj 96 723 pofrect 345 80;
#X obj 95 744 poftouch 345 80;
#X obj 69 646 poftranslate 175 0;
#X obj 117 342 poftranslate -175 0;
#X obj 21 134 loadbang;
#X msg 21 155 compute 1;
#X connect 0 0 66 0;
#X connect 1 0 39 1;
#X connect 2 0 40 0;
#X connect 5 0 6 0;
#X connect 5 0 14 0;
#X connect 5 0 104 0;
#X connect 6 0 7 0;
#X connect 6 0 10 0;
#X connect 6 0 75 0;
#X connect 6 0 107 0;
#X connect 6 0 114 0;
#X connect 7 0 8 0;
#X connect 8 0 9 0;
#X connect 9 0 11 0;
#X connect 9 0 111 0;
#X connect 10 0 12 0;
#X connect 11 0 12 0;
#X connect 12 0 77 0;
#X connect 13 0 40 0;
#X connect 15 0 2 1;
#X connect 15 1 2 2;
#X connect 16 0 15 0;
#X connect 17 0 15 0;
#X connect 18 0 16 0;
#X connect 18 1 17 0;
#X connect 19 0 21 0;
#X connect 19 0 108 0;
#X connect 19 1 22 0;
#X connect 19 1 109 0;
#X connect 20 0 65 0;
#X connect 21 0 20 0;
#X connect 21 0 25 0;
#X connect 22 0 20 0;
#X connect 22 0 28 0;
#X connect 24 0 68 0;
#X connect 25 0 26 0;
#X connect 26 0 24 0;
#X connect 27 0 44 0;
#X connect 28 0 68 0;
#X connect 30 0 58 0;
#X connect 30 1 31 0;
#X connect 31 0 42 0;
#X connect 32 0 56 0;
#X connect 33 0 52 0;
#X connect 35 0 64 0;
#X connect 36 0 32 0;
#X connect 36 0 57 0;
#X connect 37 0 71 0;
#X connect 38 0 39 2;
#X connect 39 0 86 0;
#X connect 40 0 41 0;
#X connect 41 1 30 0;
#X connect 42 0 43 0;
#X connect 43 0 36 0;
#X connect 44 0 45 0;
#X connect 45 0 55 1;
#X connect 46 0 129 1;
#X connect 47 0 123 2;
#X connect 48 0 128 1;
#X connect 49 0 128 2;
#X connect 50 0 51 0;
#X connect 51 0 35 0;
#X connect 52 0 50 0;
#X connect 54 0 37 0;
#X connect 55 0 91 0;
#X connect 56 0 33 0;
#X connect 57 0 63 0;
#X connect 58 0 61 0;
#X connect 59 0 103 0;
#X connect 60 0 59 0;
#X connect 60 0 63 0;
#X connect 61 0 62 0;
#X connect 62 0 60 0;
#X connect 63 0 70 0;
#X connect 64 0 34 0;
#X connect 64 0 34 1;
#X connect 65 0 23 1;
#X connect 65 0 23 0;
#X connect 66 0 67 0;
#X connect 67 0 4 0;
#X connect 67 0 40 0;
#X connect 67 0 53 0;
#X connect 69 0 27 0;
#X connect 72 0 123 0;
#X connect 73 0 89 0;
#X connect 74 0 39 0;
#X connect 76 0 4 0;
#X connect 78 0 13 0;
#X connect 78 0 18 0;
#X connect 79 0 37 1;
#X connect 80 0 37 1;
#X connect 81 0 85 0;
#X connect 82 0 85 1;
#X connect 83 0 85 2;
#X connect 85 0 84 0;
#X connect 86 0 113 0;
#X connect 86 1 87 0;
#X connect 87 0 88 0;
#X connect 89 0 55 0;
#X connect 89 0 115 0;
#X connect 89 1 2 0;
#X connect 89 2 90 0;
#X connect 90 0 112 0;
#X connect 91 0 29 0;
#X connect 92 0 100 0;
#X connect 92 1 110 0;
#X connect 93 0 94 0;
#X connect 93 1 106 0;
#X connect 95 0 94 0;
#X connect 96 0 124 2;
#X connect 97 0 124 1;
#X connect 97 0 126 1;
#X connect 98 0 95 0;
#X connect 99 0 101 0;
#X connect 101 0 100 0;
#X connect 102 0 52 0;
#X connect 102 0 50 0;
#X connect 102 0 51 0;
#X connect 103 1 33 0;
#X connect 104 0 106 4;
#X connect 105 0 106 4;
#X connect 106 0 124 0;
#X connect 107 0 105 0;
#X connect 108 0 110 4;
#X connect 109 0 110 4;
#X connect 110 0 126 0;
#X connect 111 0 121 0;
#X connect 111 0 122 0;
#X connect 113 0 53 0;
#X connect 114 0 121 0;
#X connect 115 0 120 0;
#X connect 116 0 121 0;
#X connect 117 0 116 0;
#X connect 118 0 119 0;
#X connect 120 0 121 0;
#X connect 122 0 121 0;
#X connect 123 0 128 0;
#X connect 123 0 129 0;
#X connect 124 0 125 0;
#X connect 125 1 5 0;
#X connect 126 0 127 0;
#X connect 127 1 19 0;
#X connect 128 0 92 0;
#X connect 129 0 93 0;
#X connect 130 0 131 0;
#X connect 131 0 53 0;
#X connect 131 0 40 0;
