#N canvas 676 398 375 368 10;
#X declare -path abs;
#X declare -lib pof;
#N canvas 679 166 239 87 \$0-sub 1;
#X restore 29 272 pd \$0-sub;
#X obj 28 211 pofwin;
#X msg 40 178 build;
#N canvas 563 319 541 446 layout 0;
#X obj 228 17 pofhead;
#X obj 134 343 pofvisible 1;
#X obj 247 272 pofvisible 1;
#X obj 247 293 s \$0-sub-head;
#X obj 134 368 s \$0-menu-head;
#X obj 134 290 == 0;
#X obj 104 198 tgl 15 0 empty empty empty 17 7 0 10 -262144 -1 -1 0
1;
#X obj 228 327 pofvisible 0;
#X obj 104 105 r \$0-return-to-menu;
#X msg 104 155 0;
#X obj 46 84 r \$0-menu-do;
#X msg 46 172 1;
#X obj 46 151 del 200;
#X obj 46 128 b;
#X obj 228 192 t a a a;
#X obj 267 243 pofrect 500 800;
#X obj 262 46 pofwin;
#X obj 262 70 route window;
#X obj 262 92 unpack f f;
#X obj 262 140 min;
#X obj 262 117 / 500;
#X obj 304 117 / 800;
#X floatatom 321 168 5 0 0 0 - - -, f 5;
#X obj 228 168 pofscale 1 1;
#X msg 72 130 stop;
#X obj 228 399 s \$0-return-to-menu;
#N canvas 809 388 458 371 button-return_to_menu 0;
#X obj 99 39 inlet head;
#X obj 126 135 pofrect 500 30;
#X obj 126 163 poftouch 500 30;
#X obj 99 213 pofscale 1 1;
#X obj 99 84 t a a;
#X floatatom 210 39 5 0 0 0 - - -, f 5;
#X obj 99 61 poftranslate 0 -385;
#X obj 31 -10 loadbang;
#X obj 213 318 outlet tap;
#X obj 99 234 poftexts vera 41;
#X msg 31 13 text RETURN TO MENU;
#X obj 213 185 route up;
#X obj 213 205 unpack f f;
#X obj 213 229 abs;
#X obj 213 250 <= 250;
#X obj 270 247 <= 15;
#X obj 270 225 abs;
#X obj 213 276 &&;
#X obj 213 296 sel 1;
#X obj 99 192 pofcolor 0 0 0 0.8;
#X obj 126 104 pofcolor 1 1 1 0.4;
#X connect 0 0 6 0;
#X connect 1 0 2 0;
#X connect 2 1 11 0;
#X connect 3 0 9 0;
#X connect 4 0 19 0;
#X connect 4 1 20 0;
#X connect 5 0 6 2;
#X connect 6 0 4 0;
#X connect 7 0 10 0;
#X connect 10 0 9 0;
#X connect 11 0 12 0;
#X connect 12 0 13 0;
#X connect 12 1 16 0;
#X connect 13 0 14 0;
#X connect 14 0 17 0;
#X connect 15 0 17 1;
#X connect 16 0 15 0;
#X connect 17 0 18 0;
#X connect 18 0 8 0;
#X connect 19 0 3 0;
#X connect 20 0 1 0;
#X restore 228 349 pd button-return_to_menu;
#X text 291 141 auto-scale to screen;
#X text 366 241 background;
#X obj 336 196 tgl 15 0 empty empty empty 17 7 0 10 -262144 -1 -1 0
1;
#X text 333 292 to sub-scene;
#X obj 228 374 del 10;
#X obj 267 219 pofcolor 0 0 0 1;
#X connect 0 0 23 0;
#X connect 1 0 4 0;
#X connect 2 0 3 0;
#X connect 5 0 1 0;
#X connect 6 0 5 0;
#X connect 6 0 7 0;
#X connect 6 0 2 0;
#X connect 7 0 26 0;
#X connect 8 0 9 0;
#X connect 8 0 24 0;
#X connect 9 0 6 0;
#X connect 10 0 13 0;
#X connect 11 0 6 0;
#X connect 12 0 11 0;
#X connect 13 0 12 0;
#X connect 14 0 1 0;
#X connect 14 0 7 0;
#X connect 14 1 2 0;
#X connect 14 2 32 0;
#X connect 16 0 17 0;
#X connect 17 0 18 0;
#X connect 18 0 20 0;
#X connect 18 1 21 0;
#X connect 19 0 22 0;
#X connect 19 0 23 1;
#X connect 19 0 23 2;
#X connect 20 0 19 0;
#X connect 21 0 19 1;
#X connect 23 0 14 0;
#X connect 24 0 12 0;
#X connect 26 0 31 0;
#X connect 29 0 32 3;
#X connect 31 0 25 0;
#X connect 32 0 15 0;
#X restore 28 241 pd layout;
#N canvas 749 326 307 150 bang_on_first_frame 0;
#X obj 54 49 pofbang 1;
#X obj 54 26 pofhead;
#X msg 105 76 0;
#X obj 143 76 outlet;
#X connect 0 1 2 0;
#X connect 0 1 3 0;
#X connect 1 0 0 0;
#X connect 2 0 0 0;
#X restore 28 131 pd bang_on_first_frame;
#N canvas 669 402 469 500 load_subscene 0;
#X obj 113 318 s pd-\$0-sub;
#X msg 55 279 clear;
#X obj 113 91 symbol;
#X obj 113 43 r \$0-menu-do;
#X obj 55 255 loadbang;
#X msg 140 139 \; pd dsp 0;
#X obj 113 115 t s b;
#X obj 113 254 pack s s;
#X obj 158 231 symbol \$0-sub-head;
#X obj 158 189 loadbang;
#X obj 158 212 bng 15 250 50 0 empty empty empty 17 7 0 10 -262144
-1 -1;
#X obj 236 63 r \$0-return-to-menu;
#X msg 236 161 clear;
#X msg 282 159 \; pd dsp 0;
#X obj 236 138 t b b;
#X msg 177 90 stop;
#X obj 269 88 bng 15 250 50 0 empty empty empty 17 7 0 10 -262144 -1
-1;
#X obj 236 88 b;
#X obj 236 114 del 40;
#X msg 113 282 clear \, obj 20 20 \$1/pof_main \$2 \, loadbang \; pd
dsp 1;
#N canvas 747 359 307 150 bang_on_first_frame 0;
#X obj 65 74 pofbang 1;
#X obj 65 51 pofhead;
#X msg 116 101 0;
#X obj 154 101 outlet;
#X msg 30 45 1;
#X obj 30 20 inlet reset;
#X connect 0 1 2 0;
#X connect 0 1 3 0;
#X connect 1 0 0 0;
#X connect 2 0 0 0;
#X connect 4 0 0 0;
#X connect 5 0 4 0;
#X restore 209 372 pd bang_on_first_frame;
#X obj 209 414 pofwin;
#X msg 209 393 build;
#X obj 209 348 del 10;
#X obj 209 328 b;
#X connect 1 0 0 0;
#X connect 2 0 6 0;
#X connect 3 0 2 0;
#X connect 3 0 15 0;
#X connect 4 0 1 0;
#X connect 6 0 7 0;
#X connect 6 1 5 0;
#X connect 7 0 19 0;
#X connect 7 0 24 0;
#X connect 8 0 7 1;
#X connect 9 0 10 0;
#X connect 10 0 8 0;
#X connect 11 0 17 0;
#X connect 12 0 0 0;
#X connect 14 0 12 0;
#X connect 14 1 13 0;
#X connect 15 0 18 0;
#X connect 16 0 18 0;
#X connect 17 0 18 0;
#X connect 18 0 14 0;
#X connect 19 0 0 0;
#X connect 20 0 22 0;
#X connect 22 0 21 0;
#X connect 23 0 20 0;
#X connect 24 0 23 0;
#X restore 29 292 pd load_subscene;
#X obj 156 258 menubutton \$0 not_a_patch;
#X floatatom 285 209 5 0 0 0 - - -, f 5;
#X obj 156 207 r \$0-menu-head;
#X obj 14 51 poffonts vera font/vera.ttf;
#X msg 28 153 window 500 800 0 \, framerate 25 \, background 0 0 0
;
#X obj 14 73 poffonts impact font/Impact.ttf;
#X obj 14 30 declare -path abs;
#N canvas 523 103 591 518 credit/title 0;
#X obj 79 40 r \$0-menu-head;
#X obj 79 90 credit;
#X floatatom 184 33 5 0 0 0 - - -, f 5;
#X obj 65 123 r \$0-menu-head;
#X obj 233 136 loadbang;
#X floatatom 187 117 5 0 0 0 - - -, f 5;
#X obj 79 64 poftranslate 0 385;
#X obj 84 259 poftexts impact 96;
#X obj 84 234 pofcolor 0 0 0 1;
#X obj 104 210 pofrect 400 185 5;
#X obj 104 188 pofcolor 1 1 1 0.7;
#X msg 234 158 width 400 \, lineheight 0.64 \, spacing 21 \, text Pof
Patch Player;
#X obj 65 147 poftranslate 0 -290;
#X obj 65 167 t a a a;
#X floatatom 382 455 5 0 0 0 - - -, f 5;
#X floatatom 423 457 5 0 0 0 - - -, f 5;
#X floatatom 409 380 5 0 0 0 - - -, f 5;
#X floatatom 468 380 5 0 0 0 - - -, f 5;
#X obj 351 424 pofcolor 1 1 1 0.5;
#X obj 351 478 pofrect 3 165;
#X obj 351 401 poftranslate -154 -4;
#X obj 65 281 t a a a;
#X floatatom 207 452 5 0 0 0 - - -, f 5;
#X floatatom 248 454 5 0 0 0 - - -, f 5;
#X floatatom 234 377 5 0 0 0 - - -, f 5;
#X floatatom 293 377 5 0 0 0 - - -, f 5;
#X obj 176 421 pofcolor 1 1 1 0.5;
#X floatatom 135 440 5 0 0 0 - - -, f 5;
#X floatatom 93 457 5 0 0 0 - - -, f 5;
#X floatatom 79 380 5 0 0 0 - - -, f 5;
#X floatatom 138 380 5 0 0 0 - - -, f 5;
#X obj 21 424 pofcolor 1 1 1 0.5;
#X obj 176 475 pofrect 3 61;
#X obj 176 398 poftranslate -94 48;
#X obj 21 401 poftranslate -33 -32;
#X obj 21 478 pofrect 3 109;
#X connect 0 0 6 0;
#X connect 2 0 6 2;
#X connect 3 0 12 0;
#X connect 4 0 11 0;
#X connect 5 0 12 2;
#X connect 6 0 1 0;
#X connect 8 0 7 0;
#X connect 10 0 9 0;
#X connect 11 0 7 0;
#X connect 12 0 13 0;
#X connect 13 0 21 0;
#X connect 13 1 8 0;
#X connect 13 2 10 0;
#X connect 14 0 19 1;
#X connect 15 0 19 2;
#X connect 16 0 20 1;
#X connect 17 0 20 2;
#X connect 18 0 19 0;
#X connect 20 0 18 0;
#X connect 21 0 34 0;
#X connect 21 1 33 0;
#X connect 21 2 20 0;
#X connect 22 0 32 1;
#X connect 23 0 32 2;
#X connect 24 0 33 1;
#X connect 25 0 33 2;
#X connect 26 0 32 0;
#X connect 27 0 32 1;
#X connect 27 0 19 1;
#X connect 27 0 35 1;
#X connect 28 0 35 2;
#X connect 29 0 34 1;
#X connect 30 0 34 2;
#X connect 31 0 35 0;
#X connect 33 0 26 0;
#X connect 34 0 31 0;
#X restore 158 178 pd credit/title;
#X obj 156 278 menubutton \$0 circles;
#X obj 156 299 menubutton \$0 sampler;
#X obj 156 318 menubutton \$0 touch;
#X obj 156 339 menubutton \$0 scratchpad;
#X obj 156 231 poftranslate 0 -120;
#X obj 14 10 declare -lib pof;
#X connect 2 0 1 0;
#X connect 4 0 10 0;
#X connect 6 0 14 0;
#X connect 7 0 18 2;
#X connect 8 0 18 0;
#X connect 10 0 1 0;
#X connect 14 0 15 0;
#X connect 15 0 16 0;
#X connect 16 0 17 0;
#X connect 18 0 6 0;
