#N canvas 608 66 407 677 10;
#X declare -lib pof;
#X obj 92 157 circ \$0;
#X msg 287 502 4;
#X floatatom 287 523 5 3 50 0 - - -;
#X obj 287 543 s \$0-res;
#X obj 254 20 import pof;
#X obj 65 131 t a a;
#X msg 72 345 draw \$1;
#X obj 72 326 tgl 15 0 empty empty empty 17 7 0 10 -262144 -1 -1 0
1;
#X msg 321 501 10;
#X floatatom 145 80 5 0 0 0 - - -;
#X obj 46 7 r \$1;
#X obj 65 105 pofscale 2.5 2.5;
#X obj 86 423 poftranslate -210 -336;
#X obj 46 28 t a a a;
#X obj 85 72 credit;
#X obj 85 50 poftranslate 0 385;
#N canvas 475 432 472 521 rot_slider 0;
#X obj 104 8 inlet;
#X floatatom 230 47 5 0 0 0 - - -;
#X floatatom 221 278 5 0 0 0 - - -;
#X obj 166 340 loadbang;
#X obj 104 482 poftexts vera 23;
#X msg 136 368 text ROTATION SLIDER;
#X obj 104 293 pofcolor 0 0 0 1;
#X floatatom 221 304 5 0 0 0 - - -;
#X msg 174 390 text (or use second finger);
#X obj 104 414 poftexts vera 40;
#X obj 104 316 poftranslate 0 -10;
#X obj 103 32 pofcolor 1 1 1 0.7;
#X obj 104 447 poftranslate 0 26;
#X obj 104 85 t a a a;
#X obj 123 203 pofrect 500 60;
#X obj 143 108 pofcolor 1 1 1 1;
#X obj 143 135 poftranslate;
#X obj 143 156 pofrect 200 60;
#X obj 123 178 pofcolor 0.4 0.4 0.4 1;
#X obj 277 110 * 0.5;
#X obj 277 130 - 250;
#X obj 277 21 r \$0-rot;
#X obj 277 45 fmod 360;
#X obj 277 85 * 500;
#X obj 277 65 / 360;
#X obj 103 58 poftranslate 0 340;
#X obj 283 196 route down move;
#X obj 381 356 r \$0-rot;
#X obj 278 227 unpack f f;
#X obj 347 227 unpack f f;
#X obj 331 269 t f f;
#X obj 316 302 -;
#X obj 352 375 +;
#X obj 352 396 s \$0-rot;
#X obj 123 225 poftouch 500 60;
#X obj 347 314 * 360;
#X obj 347 334 / 500;
#X obj 359 71 loadbang;
#X msg 359 92 0;
#X connect 0 0 11 0;
#X connect 1 0 25 2;
#X connect 2 0 6 4;
#X connect 3 0 8 0;
#X connect 3 0 5 0;
#X connect 5 0 9 0;
#X connect 6 0 10 0;
#X connect 7 0 10 2;
#X connect 8 0 4 0;
#X connect 9 0 12 0;
#X connect 10 0 9 0;
#X connect 11 0 25 0;
#X connect 12 0 4 0;
#X connect 13 0 6 0;
#X connect 13 1 18 0;
#X connect 13 2 15 0;
#X connect 14 0 34 0;
#X connect 15 0 16 0;
#X connect 16 0 17 0;
#X connect 18 0 14 0;
#X connect 19 0 20 0;
#X connect 20 0 16 1;
#X connect 21 0 22 0;
#X connect 22 0 24 0;
#X connect 23 0 19 0;
#X connect 23 0 17 1;
#X connect 24 0 23 0;
#X connect 25 0 13 0;
#X connect 26 0 28 0;
#X connect 26 1 29 0;
#X connect 27 0 32 1;
#X connect 28 0 31 1;
#X connect 29 0 30 0;
#X connect 30 0 31 1;
#X connect 30 1 31 0;
#X connect 31 0 35 0;
#X connect 32 0 33 0;
#X connect 34 1 26 0;
#X connect 35 0 36 0;
#X connect 36 0 32 0;
#X connect 37 0 38 0;
#X connect 38 0 22 0;
#X restore 47 644 pd rot_slider;
#X obj 283 350 r \$0-rot;
#X obj 283 397 line;
#X obj 283 420 s \$0-rot-lined;
#X obj 92 178 circ \$0;
#X obj 92 200 circ \$0;
#X obj 92 221 circ \$0;
#X obj 92 244 circ \$0;
#X obj 92 265 circ \$0;
#X obj 92 287 circ \$0;
#X obj 92 308 circ \$0;
#X obj 145 156 circ \$0;
#X obj 145 177 circ \$0;
#X obj 145 199 circ \$0;
#X obj 145 220 circ \$0;
#X obj 145 243 circ \$0;
#X obj 145 264 circ \$0;
#X obj 145 286 circ \$0;
#X obj 145 307 circ \$0;
#X obj 199 153 circ \$0;
#X obj 199 174 circ \$0;
#X obj 199 196 circ \$0;
#X obj 199 217 circ \$0;
#X obj 199 240 circ \$0;
#X obj 199 261 circ \$0;
#X obj 199 283 circ \$0;
#X obj 199 304 circ \$0;
#X obj 252 152 circ \$0;
#X obj 252 173 circ \$0;
#X obj 252 195 circ \$0;
#X obj 252 216 circ \$0;
#X obj 252 239 circ \$0;
#X obj 252 260 circ \$0;
#X obj 252 282 circ \$0;
#X obj 252 303 circ \$0;
#N canvas 646 344 412 625 touch 0;
#X obj 186 579 s \$0-rot;
#X floatatom 58 296 5 0 0 0 - - -;
#X obj 48 318 s \$0-transx;
#X floatatom 136 270 5 0 0 0 - - -;
#X obj 105 290 s \$0-transy;
#X obj 57 88 route up down move;
#X msg 127 116 \$3 \$1 \$2;
#X obj 48 208 unpack f f;
#X obj 105 228 / 5;
#X obj 48 271 line;
#X obj 105 269 line;
#X obj 183 255 unpack f f;
#X obj 127 140 route 0 1;
#X obj 57 137 route 1;
#X msg 57 113 \$3 0;
#X msg 92 114 \$3 1;
#X obj 183 208 spigot;
#X obj 183 232 pack f f;
#X obj 183 305 -;
#X obj 240 305 -;
#X obj 183 179 t b a;
#X obj 198 283 unpack f f;
#X obj 183 329 atan2;
#X obj 186 409 / 3.14159;
#X obj 186 386 -;
#X obj 269 257 unpack f f;
#X obj 269 307 -;
#X obj 326 307 -;
#X obj 284 285 unpack f f;
#X obj 269 331 atan2;
#X msg 269 176 \$3 \$1 \$2;
#X msg 87 35 down 0 0 1;
#X msg 119 58 up 0 0 1;
#X obj 186 548 +;
#X obj 183 352 t f f;
#X obj 269 199 route 1 0;
#X obj 294 222 t b b a;
#X obj 186 475 wrap;
#X obj 186 431 / 2;
#X obj 186 452 + 0.5;
#X obj 186 497 - 0.5;
#X obj 186 522 * -180;
#X obj 213 547 r \$0-rot;
#X obj 225 179 tgl 15 0 empty empty empty 17 7 0 10 -262144 -1 -1 0
1;
#X obj 48 228 / 5;
#X obj 57 12 inlet;
#X msg 48 250 \$1 200;
#X msg 105 248 \$1 200;
#X connect 1 0 2 0;
#X connect 3 0 4 0;
#X connect 5 0 14 0;
#X connect 5 1 15 0;
#X connect 5 1 30 0;
#X connect 5 2 6 0;
#X connect 6 0 12 0;
#X connect 7 0 44 0;
#X connect 7 1 8 0;
#X connect 8 0 47 0;
#X connect 9 0 2 0;
#X connect 10 0 4 0;
#X connect 11 0 18 0;
#X connect 11 1 19 0;
#X connect 12 0 7 0;
#X connect 12 0 20 0;
#X connect 12 1 17 0;
#X connect 13 0 16 1;
#X connect 14 0 13 0;
#X connect 15 0 13 0;
#X connect 16 0 17 0;
#X connect 17 0 11 0;
#X connect 18 0 22 0;
#X connect 19 0 22 1;
#X connect 20 0 16 0;
#X connect 20 1 21 0;
#X connect 20 1 28 0;
#X connect 21 0 18 1;
#X connect 21 1 19 1;
#X connect 22 0 34 0;
#X connect 23 0 38 0;
#X connect 24 0 23 0;
#X connect 25 0 26 0;
#X connect 25 1 27 0;
#X connect 26 0 29 0;
#X connect 27 0 29 1;
#X connect 28 0 26 1;
#X connect 28 1 27 1;
#X connect 29 0 24 1;
#X connect 30 0 35 0;
#X connect 31 0 5 0;
#X connect 32 0 5 0;
#X connect 33 0 0 0;
#X connect 34 0 24 1;
#X connect 34 1 24 0;
#X connect 35 0 25 0;
#X connect 35 1 36 0;
#X connect 36 0 26 0;
#X connect 36 1 27 0;
#X connect 36 2 28 0;
#X connect 37 0 40 0;
#X connect 38 0 39 0;
#X connect 39 0 37 0;
#X connect 40 0 41 0;
#X connect 41 0 33 0;
#X connect 42 0 33 1;
#X connect 43 0 16 1;
#X connect 44 0 46 0;
#X connect 45 0 5 0;
#X connect 46 0 9 0;
#X connect 47 0 10 0;
#X restore 182 394 pd touch;
#X msg 283 375 \$1 200;
#X obj 65 370 poftouch 200 240 0 1;
#X obj 47 399 t a a a;
#N canvas 740 132 410 394 over_text 0;
#X obj 89 25 inlet;
#X obj 110 161 loadbang;
#X msg 110 183 text POF;
#X floatatom 200 67 5 0 0 0 - - -;
#X floatatom 209 93 5 0 0 0 - - -;
#X floatatom 207 134 5 0 0 0 - - -;
#X obj 89 112 pofscale 5.5 5.5;
#X obj 89 136 pofcolor 0 0 0 0.7;
#X obj 89 88 poftranslate 0 -185;
#X obj 89 214 poftexts impact 36;
#X obj 89 239 poftranslate 0 30;
#X obj 89 261 poftexts impact 36;
#X obj 89 286 poftranslate 0 30;
#X obj 89 308 poftexts impact 36;
#X msg 251 185 text CIRCLE;
#X msg 168 185 text HYPNO;
#X connect 0 0 8 0;
#X connect 1 0 2 0;
#X connect 1 0 15 0;
#X connect 1 0 14 0;
#X connect 2 0 9 0;
#X connect 3 0 8 2;
#X connect 4 0 6 1;
#X connect 4 0 6 2;
#X connect 5 0 7 4;
#X connect 6 0 7 0;
#X connect 7 0 9 0;
#X connect 8 0 6 0;
#X connect 9 0 10 0;
#X connect 10 0 11 0;
#X connect 11 0 12 0;
#X connect 12 0 13 0;
#X connect 14 0 13 0;
#X connect 15 0 11 0;
#X restore 66 621 pd over_text;
#X obj 86 448 pofcolor 1 1 1 0.6;
#X obj 86 470 res_button \$0 3;
#X obj 86 492 res_button \$0 4;
#X obj 86 512 res_button \$0 5;
#X obj 86 534 res_button \$0 8;
#X obj 86 555 res_button \$0 12;
#X obj 86 577 res_button \$0 30;
#X obj 290 450 loadbang;
#X msg 356 501 12;
#X connect 0 0 20 0;
#X connect 1 0 2 0;
#X connect 2 0 3 0;
#X connect 5 0 53 0;
#X connect 5 1 0 0;
#X connect 6 0 53 0;
#X connect 7 0 6 0;
#X connect 8 0 2 0;
#X connect 9 0 11 1;
#X connect 9 0 11 2;
#X connect 10 0 13 0;
#X connect 11 0 5 0;
#X connect 12 0 56 0;
#X connect 13 0 54 0;
#X connect 13 1 11 0;
#X connect 13 2 15 0;
#X connect 15 0 14 0;
#X connect 17 0 52 0;
#X connect 18 0 19 0;
#X connect 20 0 21 0;
#X connect 21 0 22 0;
#X connect 22 0 23 0;
#X connect 23 0 24 0;
#X connect 24 0 25 0;
#X connect 25 0 26 0;
#X connect 26 0 27 0;
#X connect 27 0 28 0;
#X connect 28 0 29 0;
#X connect 29 0 30 0;
#X connect 30 0 31 0;
#X connect 31 0 32 0;
#X connect 32 0 33 0;
#X connect 33 0 34 0;
#X connect 34 0 35 0;
#X connect 35 0 36 0;
#X connect 36 0 37 0;
#X connect 37 0 38 0;
#X connect 38 0 39 0;
#X connect 39 0 40 0;
#X connect 40 0 41 0;
#X connect 41 0 42 0;
#X connect 43 0 44 0;
#X connect 44 0 45 0;
#X connect 45 0 46 0;
#X connect 46 0 47 0;
#X connect 47 0 48 0;
#X connect 48 0 49 0;
#X connect 49 0 50 0;
#X connect 52 0 18 0;
#X connect 53 1 51 0;
#X connect 54 0 16 0;
#X connect 54 1 55 0;
#X connect 54 2 12 0;
#X connect 56 0 57 0;
#X connect 57 0 58 0;
#X connect 58 0 59 0;
#X connect 59 0 60 0;
#X connect 60 0 61 0;
#X connect 61 0 62 0;
#X connect 63 0 64 0;
#X connect 64 0 2 0;
