#N canvas 784 125 495 468 10;
#N canvas 889 387 450 300 number 0;
#X obj 54 4 inlet;
#X obj 52 36 route down move up;
#X obj 51 67 unpack f f;
#X obj 126 68 unpack f f;
#X obj 135 122 -;
#X obj 135 148 * -1;
#X obj 135 182 +;
#X obj 161 208 outlet;
#X obj 150 90 t f f;
#X msg 212 135 0;
#X obj 254 181 clip -500 500;
#X obj 161 183 clip -500 500;
#X obj 222 16 inlet;
#X connect 0 0 1 0;
#X connect 1 0 2 0;
#X connect 1 1 3 0;
#X connect 2 1 4 1;
#X connect 3 1 8 0;
#X connect 4 0 5 0;
#X connect 5 0 6 0;
#X connect 6 0 11 0;
#X connect 8 0 4 1;
#X connect 8 1 4 0;
#X connect 9 0 11 0;
#X connect 11 0 6 1;
#X connect 11 0 7 0;
#X connect 12 0 11 0;
#X restore 72 284 pd number;
#X floatatom 72 308 5 0 0 0 - - -;
#X msg 124 329 text \$1;
#X obj 137 251 pofcolor 0 0 0 1;
#X msg -60 226 draw \$1;
#X obj -60 207 tgl 15 0 empty empty empty 17 7 0 10 -262144 -1 -1 0
1;
#X obj -9 240 pofcolor 1 0 0 0.5;
#X obj 72 374 outlet;
#X obj -9 57 inlet;
#X obj 144 38 inlet;
#X obj 199 39 inlet;
#X obj -9 184 t a a;
#X obj 144 75 t f b;
#X obj 199 75 t f b;
#X obj 210 153 t b b;
#X msg 237 174 1;
#X obj 210 195 del 2000;
#X msg 210 217 0;
#X obj -9 157 poftranslate \$3 \$4;
#X obj -9 262 poftouch \$1 \$2;
#X text -67 11 pof_number width height x y;
#X obj 260 37 inlet;
#X obj 331 37 inlet;
#X obj 260 74 t f b;
#X obj 331 73 t f b;
#X obj 238 219 f;
#X obj 210 300 loadbang;
#X msg 210 321 0;
#X obj 137 273 pofscale 0.75 0.75;
#X obj -9 79 route float;
#X obj 137 373 poftexts vera 33;
#X connect 0 0 1 0;
#X connect 1 0 2 0;
#X connect 1 0 7 0;
#X connect 2 0 30 0;
#X connect 3 0 28 0;
#X connect 4 0 19 0;
#X connect 5 0 4 0;
#X connect 6 0 19 0;
#X connect 8 0 29 0;
#X connect 9 0 12 0;
#X connect 10 0 13 0;
#X connect 11 0 6 0;
#X connect 11 1 3 0;
#X connect 12 0 19 1;
#X connect 12 1 14 0;
#X connect 13 0 19 2;
#X connect 13 1 14 0;
#X connect 14 0 16 0;
#X connect 14 1 15 0;
#X connect 15 0 25 0;
#X connect 16 0 17 0;
#X connect 17 0 25 0;
#X connect 18 0 11 0;
#X connect 19 1 0 0;
#X connect 21 0 23 0;
#X connect 22 0 24 0;
#X connect 23 0 18 1;
#X connect 23 1 14 0;
#X connect 24 0 18 2;
#X connect 24 1 14 0;
#X connect 25 0 5 0;
#X connect 26 0 27 0;
#X connect 27 0 2 0;
#X connect 28 0 30 0;
#X connect 29 0 0 1;
#X connect 29 1 18 0;
