#N canvas 641 91 580 811 10;
#X msg 133 248 draw \$1;
#X obj 133 228 tgl 15 0 empty empty empty 17 7 0 10 -262144 -1 -1 1
1;
#X obj 87 20 r \$1;
#X obj 207 294 route down up;
#X obj 108 590 loadbang;
#X obj 262 21 pofhead;
#X text 118 20 This is the "head" \, see;
#X obj 87 136 t a a;
#X obj 133 184 loadbang;
#X msg 133 206 1;
#X obj 114 157 pofcolor 0.6 0.2 0.8 0.3;
#X text 117 62 Reserve a 30 pixels heigth at the top of the screen
for the RETURN button.;
#X obj 87 109 poftranslate 0 15;
#X floatatom 206 224 5 0 0 0 - - -;
#X text 118 34 This head is rescaled for your screen \, in order to
draw a 500x800 surface fullscreen.;
#X msg 207 317 1;
#X msg 244 317 0.6;
#X obj 196 352 f;
#X obj 87 561 pofcolor 0.4 0.8 0.2 1;
#X msg 213 698 size \$1;
#X floatatom 213 678 5 0 0 0 - - -;
#X obj 114 272 poftouch 490 760;
#X msg 108 614 width 460 \, readfile text.txt;
#X obj 87 643 poftexts vera 29;
#X obj 241 374 line;
#X obj 87 537 pofrotate;
#X obj 241 397 sqrt;
#X obj 241 420 sqrt;
#X msg 121 441 1 \$1;
#X obj 121 461 /;
#X obj 241 441 * 1800;
#X msg 241 351 0 \, 1 5000;
#X msg 177 440 1 \$1;
#X obj 177 460 /;
#X obj 121 486 min 60;
#X obj 177 485 min 30;
#X floatatom 385 628 5 0 0 0 - - -;
#X floatatom 441 629 5 0 0 0 - - -;
#X floatatom 388 677 5 0 0 0 - - -;
#X obj 87 374 poftranslate 0 90;
#X obj 330 701 pofimage pOf.png 250;
#X obj 330 652 poftranslate 0 -320;
#X obj 87 511 pofscale 1 1;
#X obj 177 416 pow 1;
#X obj 121 417 pow 3;
#X obj 37 716 credit;
#X obj 37 694 poftranslate 0 270;
#X connect 0 0 21 0;
#X connect 1 0 0 0;
#X connect 2 0 12 0;
#X connect 3 0 15 0;
#X connect 3 1 16 0;
#X connect 4 0 22 0;
#X connect 7 0 39 0;
#X connect 7 1 10 0;
#X connect 8 0 9 0;
#X connect 9 0 1 0;
#X connect 10 0 21 0;
#X connect 12 0 7 0;
#X connect 13 0 21 1;
#X connect 15 0 17 0;
#X connect 16 0 17 0;
#X connect 16 0 31 0;
#X connect 17 0 10 1;
#X connect 18 0 23 0;
#X connect 18 0 41 0;
#X connect 19 0 23 0;
#X connect 20 0 19 0;
#X connect 21 1 3 0;
#X connect 22 0 23 0;
#X connect 24 0 26 0;
#X connect 24 0 43 0;
#X connect 24 0 44 0;
#X connect 25 0 18 0;
#X connect 25 0 46 0;
#X connect 26 0 27 0;
#X connect 27 0 30 0;
#X connect 28 0 29 0;
#X connect 29 0 34 0;
#X connect 30 0 25 1;
#X connect 31 0 24 0;
#X connect 32 0 33 0;
#X connect 33 0 35 0;
#X connect 34 0 42 1;
#X connect 35 0 42 2;
#X connect 36 0 41 1;
#X connect 37 0 41 2;
#X connect 38 0 40 1;
#X connect 39 0 42 0;
#X connect 41 0 40 0;
#X connect 42 0 25 0;
#X connect 43 0 32 0;
#X connect 44 0 28 0;
#X connect 46 0 45 0;
